/* XPM */
static char * char0_xpm[] = {
"75 75 103 2",
"  	c None",
". 	c #010101",
"+ 	c #393939",
"@ 	c #7A7A7A",
"# 	c #797979",
"$ 	c #3E3E3E",
"% 	c #020202",
"& 	c #515151",
"* 	c #FEFEFE",
"= 	c #FFFFFF",
"- 	c #F9F9F9",
"; 	c #5B5B5B",
"> 	c #0A0A0A",
", 	c #282828",
"' 	c #2B2B2B",
") 	c #2D2D2D",
"! 	c #6D6D6D",
"~ 	c #ABABAB",
"{ 	c #9C9C9C",
"] 	c #AEAEAE",
"^ 	c #F4F4F4",
"/ 	c #FAFAFA",
"( 	c #737373",
"_ 	c #262626",
": 	c #222222",
"< 	c #070707",
"[ 	c #292929",
"} 	c #CBCBCB",
"| 	c #FDFDFD",
"1 	c #CACACA",
"2 	c #030303",
"3 	c #303030",
"4 	c #D6D6D6",
"5 	c #EDEDED",
"6 	c #E0E0E0",
"7 	c #C2C2C2",
"8 	c #202020",
"9 	c #2A2A2A",
"0 	c #CDCDCD",
"a 	c #252525",
"b 	c #2E2E2E",
"c 	c #D5D5D5",
"d 	c #232323",
"e 	c #242424",
"f 	c #060606",
"g 	c #1A1A1A",
"h 	c #1B1B1B",
"i 	c #414141",
"j 	c #D3D3D3",
"k 	c #0E0E0E",
"l 	c #323232",
"m 	c #363636",
"n 	c #3A3A3A",
"o 	c #9F9F9F",
"p 	c #EFEFEF",
"q 	c #999999",
"r 	c #888888",
"s 	c #878787",
"t 	c #535353",
"u 	c #D4D4D4",
"v 	c #E6E6E6",
"w 	c #EBEBEB",
"x 	c #040404",
"y 	c #848484",
"z 	c #FCFCFC",
"A 	c #E4E4E4",
"B 	c #D2D2D2",
"C 	c #E2E2E2",
"D 	c #E3E3E3",
"E 	c #F2F2F2",
"F 	c #CCCCCC",
"G 	c #090909",
"H 	c #4E4E4E",
"I 	c #4D4D4D",
"J 	c #4C4C4C",
"K 	c #313131",
"L 	c #050505",
"M 	c #161616",
"N 	c #171717",
"O 	c #191919",
"P 	c #F8F8F8",
"Q 	c #C4C4C4",
"R 	c #7F7F7F",
"S 	c #6C6C6C",
"T 	c #6B6B6B",
"U 	c #909090",
"V 	c #9A9A9A",
"W 	c #181818",
"X 	c #8D8D8D",
"Y 	c #616161",
"Z 	c #727272",
"` 	c #DEDEDE",
" .	c #F5F5F5",
"..	c #DCDCDC",
"+.	c #DDDDDD",
"@.	c #C0C0C0",
"#.	c #0D0D0D",
"$.	c #BFBFBF",
"%.	c #1F1F1F",
"&.	c #BDBDBD",
"*.	c #0F0F0F",
"=.	c #484848",
"-.	c #424242",
"                                        . + @ @ @ @ @ @ @ @ @ @ @ @ @ @ @ @ @ @ @ @ @ @ @ @ @ @ @ @ @ @ # $                                           ",
"                                        % & * = = = = = = = = = = = = = = = = = = = = = = = = = = = = = - ;                                           ",
"                                        % & * = = = = = = = = = = = = = = = = = = = = = = = = = = = = = - ;                                           ",
"                                        % & * = = = = = = = = = = = = = = = = = = = = = = = = = = = = = - ;                                           ",
"                                        % & * = = = = = = = = = = = = = = = = = = = = = = = = = = = = = - ;                                           ",
"                                        % & * = = = = = = = = = = = = = = = = = = = = = = = = = = = = = - ;                                           ",
"                                        % & * = = = = = = = = = = = = = = = = = = = = = = = = = = = = = - ;                                           ",
"                                        % & * = = = = = = = = = = = = = = = = = = = = = = = = = = = = = - ;                                           ",
"                                        % & * = = = = = = = = = = = = = = = = = = = = = = = = = = = = = - ;                                           ",
"                                        % & * = = = = = = = = = = = = = = = = = = = = = = = = = = = = = - ;                                           ",
"                    > , ' ' ' ' ' ' ' ' ) ! ~ { { { { { { { { { { { { { { { { { { { ] ^ = = = = = = = = / ( _ _ _ _ _ _ _ _ _ : <                     ",
"                    [ } | | | | | | | | | 1 , 2 2 2 2 2 2 2 2 2 2 2 2 2 2 2 2 2 2 2 3 4 = = = = = = = = = 5 6 6 6 6 6 6 6 6 6 7 8                     ",
"                    9 0 = = = = = = = = = 1 a                                       b c = = = = = = = = = = = = = = = = = = = c d                     ",
"                    9 0 = = = = = = = = = 1 a                                       b c = = = = = = = = = = = = = = = = = = = c d                     ",
"                    9 0 = = = = = = = = = 1 a                                       b c = = = = = = = = = = = = = = = = = = = c d                     ",
"                    9 0 = = = = = = = = = 1 a                                       b c = = = = = = = = = = = = = = = = = = = c d                     ",
"                    9 0 = = = = = = = = = 1 a                                       b c = = = = = = = = = = = = = = = = = = = c d                     ",
"                    9 0 = = = = = = = = = 1 a                                       b c = = = = = = = = = = = = = = = = = = = c d                     ",
"                    9 0 = = = = = = = = = 1 a                                       b c = = = = = = = = = = = = = = = = = = = c d                     ",
"                    9 0 = = = = = = = = = 1 a                                       b c = = = = = = = = = = = = = = = = = = = c d                     ",
"                    9 0 = = = = = = = = = 1 a                                       b c = = = = = = = = = = = = = = = = = = = c e . . . . . . . . . . ",
"f g h h h h h h h h i j = = = = = = = = = 1 a                                       k l m m m m m m m m n o = = = = = = = = = p q r r r r r r r r s t ",
"d u v v v v v v v v w | = = = = = = = = = 1 a                                                           x y = = = = = = = = = = = = = = = = = = = z # ",
"e A = = = = = = = = = = = = = = = = = = = 1 a                                                           x y = = = = = = = = = = = = = = = = = = = z # ",
"e A = = = = = = = = = = = = = = = = = = = 1 a                                                           x y = = = = = = = = = = = = = = = = = = = z # ",
"e A = = = = = = = = = = = = = = = = = = = 1 a                                                           x y = = = = = = = = = = = = = = = = = = = z # ",
"e A = = = = = = = = = = = = = = = = = = = 1 a                                                           x y = = = = = = = = = = = = = = = = = = = z # ",
"e A = = = = = = = = = = = = = = = = = = = 1 a                                                           x y = = = = = = = = = = = = = = = = = = = z # ",
"e A = = = = = = = = = = = = = = = = = = = 1 a                                                           x y = = = = = = = = = = = = = = = = = = = z # ",
"e A = = = = = = = = = = = = = = = = = = = 1 a                                                           x y = = = = = = = = = = = = = = = = = = = z # ",
"e A = = = = = = = = = = = = = = = = = = = 1 a                                                           x y = = = = = = = = = = = = = = = = = = = z # ",
"e A = = = = = = = = = = = = = = = = = = = 1 a                                                           x y = = = = = = = = = = = = = = = = = = = z # ",
"e A = = = = = = = = = = = = = = = = = = = 1 a                                                           x y = = = = = = = = = = = = = = = = = = = z # ",
"e A = = = = = = = = = = = = = = = = = = = 1 a                                                           x y = = = = = = = = = = = = = = = = = = = z # ",
"e A = = = = = = = = = = = = = = = = = = = 1 a                                                           x y = = = = = = = = = = = = = = = = = = = z # ",
"e A = = = = = = = = = = = = = = = = = = = 1 a                                                           x y = = = = = = = = = = = = = = = = = = = z # ",
"e A = = = = = = = = = = = = = = = = = = = 1 a                                                           x y = = = = = = = = = = = = = = = = = = = z # ",
"e A = = = = = = = = = = = = = = = = = = = 1 a                                                           x y = = = = = = = = = = = = = = = = = = = z # ",
"e A = = = = = = = = = = = = = = = = = = = 1 a                                                           x y = = = = = = = = = = = = = = = = = = = z # ",
"e A = = = = = = = = = = = = = = = = = = = 1 a                                                           x y = = = = = = = = = = = = = = = = = = = z # ",
"e A = = = = = = = = = = = = = = = = = = = 1 a                                                           x y = = = = = = = = = = = = = = = = = = = z # ",
"e A = = = = = = = = = = = = = = = = = = = 1 a                                                           x y = = = = = = = = = = = = = = = = = = = z # ",
"e A = = = = = = = = = = = = = = = = = = = 1 a                                                           x y = = = = = = = = = = = = = = = = = = = z # ",
"e A = = = = = = = = = = = = = = = = = = = 1 a                                                           x y = = = = = = = = = = = = = = = = = = = z # ",
"e A = = = = = = = = = = = = = = = = = = = 1 a                                                           x y = = = = = = = = = = = = = = = = = = = z # ",
"e A = = = = = = = = = = = = = = = = = = = 1 a                                                           x y = = = = = = = = = = = = = = = = = = = z # ",
"e A = = = = = = = = = = = = = = = = = = = 1 a                                                           x y = = = = = = = = = = = = = = = = = = = z # ",
"e A = = = = = = = = = = = = = = = = = = = 1 a                                                           x y = = = = = = = = = = = = = = = = = = = z # ",
"e A = = = = = = = = = = = = = = = = = = = 1 a                                                           x y = = = = = = = = = = = = = = = = = = = z # ",
"e A = = = = = = = = = = = = = = = = = = = 1 a                                                           x y = = = = = = = = = = = = = = = = = = = z # ",
"e A = = = = = = = = = = = = = = = = = = = 1 a                                                           x y = = = = = = = = = = = = = = = = = = = z # ",
"e A = = = = = = = = = = = = = = = = = = = 1 a                                                           x y = = = = = = = = = = = = = = = = = = = z # ",
"e A = = = = = = = = = = = = = = = = = = = 1 a                                                           x y = = = = = = = = = = = = = = = = = = = | # ",
"d B C C C C C C C C D E = = = = = = = = = F ) G G G G G G G G G <                                       x y = = = = = = = = = * q H I I I I I I I J K ",
"L M N N N N N N N N O # | = = = = = = = = P 0 Q Q Q Q Q Q Q Q Q R %                                     x y = = = = = = = = = | S .                   ",
"                    % T | = = = = = = = = = = = = = = = = = = * U 2                                     x y = = = = = = = = = | S .                   ",
"                    % T | = = = = = = = = = = = = = = = = = = * U 2                                     x y = = = = = = = = = | S .                   ",
"                    % T | = = = = = = = = = = = = = = = = = = * U 2                                     x y = = = = = = = = = | S .                   ",
"                    % T | = = = = = = = = = = = = = = = = = = * U 2                                     x y = = = = = = = = = | S .                   ",
"                    % T | = = = = = = = = = = = = = = = = = = * U 2                                     x y = = = = = = = = = | S .                   ",
"                    % T | = = = = = = = = = = = = = = = = = = * U 2                                     x y = = = = = = = = = | S .                   ",
"                    % T | = = = = = = = = = = = = = = = = = = * U 2                                     x y = = = = = = = = = | S .                   ",
"                    % T | = = = = = = = = = = = = = = = = = = * U 2                                     x y = = = = = = = = = | S .                   ",
"                    % T | = = = = = = = = = = = = = = = = = = * V W M M M M M M M M M M M M M M M M M M g X j } } } } } } } } 1 Y .                   ",
"                    . $ Z Z Z Z Z Z Z Z Z y ` = = = = = = = = =  .......................................+.@.) #.#.#.#.#.#.#.#.#.<                     ",
"                      % x x x x x x x x x d $.= = = = = = = = = = = = = = = = = = = = = = = = = = = = = = @.:                                         ",
"                                          %.&.= = = = = = = = = = = = = = = = = = = = = = = = = = = = = = @.:                                         ",
"                                          %.&.= = = = = = = = = = = = = = = = = = = = = = = = = = = = = = @.:                                         ",
"                                          %.&.= = = = = = = = = = = = = = = = = = = = = = = = = = = = = = @.:                                         ",
"                                          %.&.= = = = = = = = = = = = = = = = = = = = = = = = = = = = = = @.:                                         ",
"                                          %.&.= = = = = = = = = = = = = = = = = = = = = = = = = = = = = = @.:                                         ",
"                                          %.&.= = = = = = = = = = = = = = = = = = = = = = = = = = = = = = @.:                                         ",
"                                          %.&.= = = = = = = = = = = = = = = = = = = = = = = = = = = = = = @.:                                         ",
"                                          %.&.= = = = = = = = = = = = = = = = = = = = = = = = = = = = = = @.:                                         ",
"                                          *.i =.=.=.=.=.=.=.=.=.=.=.=.=.=.=.=.=.=.=.=.=.=.=.=.=.=.=.=.=.=.-.*.                                        "};
