/* XPM */
static char * char0_xpm[] = {
"20 20 51 1",
" 	c None",
".	c #737373",
"+	c #E5E5E5",
"@	c #E4E4E4",
"#	c #818181",
"$	c #FFFFFF",
"%	c #808080",
"&	c #E3E3E3",
"*	c #E2E2E2",
"=	c #F2F2F2",
"-	c #999999",
";	c #F7F7F7",
">	c #C3C3C3",
",	c #FBFBFB",
"'	c #FAFAFA",
")	c #F3F3F3",
"!	c #F6F6F6",
"~	c #C7C7C7",
"{	c #F8F8F8",
"]	c #858585",
"^	c #AAAAAA",
"/	c #DBDBDB",
"(	c #D9D9D9",
"_	c #F1F1F1",
":	c #949494",
"<	c #929292",
"[	c #828282",
"}	c #D4D4D4",
"|	c #FDFDFD",
"1	c #D5D5D5",
"2	c #D6D6D6",
"3	c #9D9D9D",
"4	c #BBBBBB",
"5	c #B0B0B0",
"6	c #C4C4C4",
"7	c #A2A2A2",
"8	c #969696",
"9	c #EAEAEA",
"0	c #CCCCCC",
"a	c #6E6E6E",
"b	c #EBEBEB",
"c	c #CFCFCF",
"d	c #6B6B6B",
"e	c #686868",
"f	c #717171",
"g	c #EFEFEF",
"h	c #F0F0F0",
"i	c #9F9F9F",
"j	c #ABABAB",
"k	c #DADADA",
"l	c #E0E0E0",
"     .+@@@@@@@      ",
"     #$$$$$$$$      ",
"     %&****=$$-     ",
"   ;$&     >$$,')   ",
"   !$*     ~$$$${   ",
"  ]{$*     ^/(_$':<[",
"}||$$*        1$$$$@",
"2$$$$*        1$$$$&",
"2$$$$*        1$$$$&",
"2$$$$*        1$$$$&",
"2$$$$*        1$$$$&",
"2$$$$*        1$$$$&",
"2$$$$*        1$$$$&",
"2$$$$*        1$$$$@",
"345=$=>67     1$$8  ",
"   9$$$$0     1$$a  ",
"   b$$$$0     c!!d  ",
"   ef#'$'gggghi     ",
"      {$$$$$$$j     ",
"      klllllll8     "};
