/* XPM */
static char * char1_xpm[] = {
"20 20 20 1",
" 	c None",
".	c #D7D7D7",
"+	c #E0E0E0",
"@	c #BBBBBB",
"#	c #F5F5F5",
"$	c #FFFFFF",
"%	c #D5D5D5",
"&	c #E8E8E8",
"*	c #E9E9E9",
"=	c #FEFEFE",
"-	c #CECECE",
";	c #BCBCBC",
">	c #FDFDFD",
",	c #F0F0F0",
"'	c #D0D0D0",
")	c #C8C8C8",
"!	c #EEEEEE",
"~	c #EFEFEF",
"{	c #F8F8F8",
"]	c #D6D6D6",
"       .++++@       ",
"       #$$$$%       ",
"       #$$$$%       ",
"    @&*=$$$$%       ",
"    -$$$$$$$%       ",
"    ;&*>$$$$%       ",
"       ,$$$$%       ",
"       ,$$$$%       ",
"       ,$$$$%       ",
"       ,$$$$%       ",
"       ,$$$$%       ",
"       ,$$$$%       ",
"       ,$$$$%       ",
"       ,$$$$%       ",
"       ,$$$$%       ",
"       ,$$$$%       ",
"       ,$$$$'       ",
" )!!!!~=$$$${!!!!!  ",
" ]$$$$$$$$$$$$$$$$  ",
" ;++++++++++++++++  "};
