/* XPM */
static char * char1_xpm[] = {
"75 75 44 1",
" 	c None",
".	c #090909",
"+	c #454545",
"@	c #4A4A4A",
"#	c #242424",
"$	c #111111",
"%	c #C4C4C4",
"&	c #FFFFFF",
"*	c #F3F3F3",
"=	c #4C4C4C",
"-	c #424242",
";	c #494949",
">	c #565656",
",	c #D7D7D7",
"'	c #161616",
")	c #C3C3C3",
"!	c #151515",
"~	c #B9B9B9",
"{	c #E3E3E3",
"]	c #E5E5E5",
"^	c #F9F9F9",
"/	c #030303",
"(	c #181818",
"_	c #ACACAC",
":	c #0D0D0D",
"<	c #A3A3A3",
"[	c #0B0B0B",
"}	c #121212",
"|	c #1E1E1E",
"1	c #A9A9A9",
"2	c #F4F4F4",
"3	c #595959",
"4	c #747474",
"5	c #D6D6D6",
"6	c #D5D5D5",
"7	c #D8D8D8",
"8	c #F5F5F5",
"9	c #FEFEFE",
"0	c #E4E4E4",
"a	c #515151",
"b	c #7E7E7E",
"c	c #323232",
"d	c #484848",
"e	c #262626",
"                         .+@@@@@@@@@@@@@@@@@@@@#                           ",
"                         $%&&&&&&&&&&&&&&&&&&&*=                           ",
"                         $%&&&&&&&&&&&&&&&&&&&*=                           ",
"                         $%&&&&&&&&&&&&&&&&&&&*=                           ",
"                         $%&&&&&&&&&&&&&&&&&&&*=                           ",
"                         $%&&&&&&&&&&&&&&&&&&&*=                           ",
"                         $%&&&&&&&&&&&&&&&&&&&*=                           ",
"                         $%&&&&&&&&&&&&&&&&&&&*=                           ",
"                         $%&&&&&&&&&&&&&&&&&&&*=                           ",
"                         $%&&&&&&&&&&&&&&&&&&&*=                           ",
"                         $%&&&&&&&&&&&&&&&&&&&*=                           ",
"               .-;;;;;;;;>,&&&&&&&&&&&&&&&&&&&*=                           ",
"               ')&&&&&&&&&&&&&&&&&&&&&&&&&&&&&*=                           ",
"               ')&&&&&&&&&&&&&&&&&&&&&&&&&&&&&*=                           ",
"               ')&&&&&&&&&&&&&&&&&&&&&&&&&&&&&*=                           ",
"               ')&&&&&&&&&&&&&&&&&&&&&&&&&&&&&*=                           ",
"               ')&&&&&&&&&&&&&&&&&&&&&&&&&&&&&*=                           ",
"               ')&&&&&&&&&&&&&&&&&&&&&&&&&&&&&*=                           ",
"               ')&&&&&&&&&&&&&&&&&&&&&&&&&&&&&*=                           ",
"               ')&&&&&&&&&&&&&&&&&&&&&&&&&&&&&*=                           ",
"               ')&&&&&&&&&&&&&&&&&&&&&&&&&&&&&*=                           ",
"               !~{{{{{{{{]^&&&&&&&&&&&&&&&&&&&*=                           ",
"               /'((((((((#_&&&&&&&&&&&&&&&&&&&*=                           ",
"                         :<&&&&&&&&&&&&&&&&&&&*=                           ",
"                         :<&&&&&&&&&&&&&&&&&&&*=                           ",
"                         :<&&&&&&&&&&&&&&&&&&&*=                           ",
"                         :<&&&&&&&&&&&&&&&&&&&*=                           ",
"                         :<&&&&&&&&&&&&&&&&&&&*=                           ",
"                         :<&&&&&&&&&&&&&&&&&&&*=                           ",
"                         :<&&&&&&&&&&&&&&&&&&&*=                           ",
"                         :<&&&&&&&&&&&&&&&&&&&*=                           ",
"                         :<&&&&&&&&&&&&&&&&&&&*=                           ",
"                         :<&&&&&&&&&&&&&&&&&&&*=                           ",
"                         :<&&&&&&&&&&&&&&&&&&&*=                           ",
"                         :<&&&&&&&&&&&&&&&&&&&*=                           ",
"                         :<&&&&&&&&&&&&&&&&&&&*=                           ",
"                         :<&&&&&&&&&&&&&&&&&&&*=                           ",
"                         :<&&&&&&&&&&&&&&&&&&&*=                           ",
"                         :<&&&&&&&&&&&&&&&&&&&*=                           ",
"                         :<&&&&&&&&&&&&&&&&&&&*=                           ",
"                         :<&&&&&&&&&&&&&&&&&&&*=                           ",
"                         :<&&&&&&&&&&&&&&&&&&&*=                           ",
"                         :<&&&&&&&&&&&&&&&&&&&*=                           ",
"                         :<&&&&&&&&&&&&&&&&&&&*=                           ",
"                         :<&&&&&&&&&&&&&&&&&&&*=                           ",
"                         :<&&&&&&&&&&&&&&&&&&&*=                           ",
"                         :<&&&&&&&&&&&&&&&&&&&*=                           ",
"                         :<&&&&&&&&&&&&&&&&&&&*=                           ",
"                         :<&&&&&&&&&&&&&&&&&&&*=                           ",
"                         :<&&&&&&&&&&&&&&&&&&&*=                           ",
"                         :<&&&&&&&&&&&&&&&&&&&*=                           ",
"                         :<&&&&&&&&&&&&&&&&&&&*=                           ",
"                         :<&&&&&&&&&&&&&&&&&&&*=                           ",
"                         :<&&&&&&&&&&&&&&&&&&&*=                           ",
"                         :<&&&&&&&&&&&&&&&&&&&*=                           ",
"                         :<&&&&&&&&&&&&&&&&&&&*=                           ",
"                         :<&&&&&&&&&&&&&&&&&&&*=                           ",
"                         :<&&&&&&&&&&&&&&&&&&&*=                           ",
"                         :<&&&&&&&&&&&&&&&&&&&*=                           ",
"                         :<&&&&&&&&&&&&&&&&&&&*=                           ",
"                         :<&&&&&&&&&&&&&&&&&&&*=                           ",
"                         :<&&&&&&&&&&&&&&&&&&&*=                           ",
"                         :<&&&&&&&&&&&&&&&&&&&*=                           ",
"     [}}}}}}}}}}}}}}}}}}}|1&&&&&&&&&&&&&&&&&&&23}}}}}}}}}}}}}}}}}}}}.      ",
"     4566666666666666666678&&&&&&&&&&&&&&&&&&&9066666666666666666665a      ",
"     b&&&&&&&&&&&&&&&&&&&&&&&&&&&&&&&&&&&&&&&&&&&&&&&&&&&&&&&&&&&&&&>      ",
"     b&&&&&&&&&&&&&&&&&&&&&&&&&&&&&&&&&&&&&&&&&&&&&&&&&&&&&&&&&&&&&&>      ",
"     b&&&&&&&&&&&&&&&&&&&&&&&&&&&&&&&&&&&&&&&&&&&&&&&&&&&&&&&&&&&&&&>      ",
"     b&&&&&&&&&&&&&&&&&&&&&&&&&&&&&&&&&&&&&&&&&&&&&&&&&&&&&&&&&&&&&&>      ",
"     b&&&&&&&&&&&&&&&&&&&&&&&&&&&&&&&&&&&&&&&&&&&&&&&&&&&&&&&&&&&&&&>      ",
"     b&&&&&&&&&&&&&&&&&&&&&&&&&&&&&&&&&&&&&&&&&&&&&&&&&&&&&&&&&&&&&&>      ",
"     b&&&&&&&&&&&&&&&&&&&&&&&&&&&&&&&&&&&&&&&&&&&&&&&&&&&&&&&&&&&&&&>      ",
"     b&&&&&&&&&&&&&&&&&&&&&&&&&&&&&&&&&&&&&&&&&&&&&&&&&&&&&&&&&&&&&&>      ",
"     b&&&&&&&&&&&&&&&&&&&&&&&&&&&&&&&&&&&&&&&&&&&&&&&&&&&&&&&&&&&&&&>      ",
"     cdddddddddddddddddddddddddddddddddddddddddddddddddddddddddddddde      "};
