/* XPM */
static char * char2_xpm[] = {
"75 75 87 1",
" 	c None",
".	c #3A3A3A",
"+	c #797979",
"@	c #7A7A7A",
"#	c #787878",
"$	c #2D2D2D",
"%	c #545454",
"&	c #F4F4F4",
"*	c #FFFFFF",
"=	c #E9E9E9",
"-	c #3F3F3F",
";	c #383838",
">	c #5F5F5F",
",	c #606060",
"'	c #969696",
")	c #FBFBFB",
"!	c #F5F5F5",
"~	c #6A6A6A",
"{	c #505050",
"]	c #878787",
"^	c #FCFCFC",
"/	c #898989",
"(	c #535353",
"_	c #6E6E6E",
":	c #ECECEC",
"<	c #252525",
"[	c #010101",
"}	c #4F4F4F",
"|	c #F9F9F9",
"1	c #BCBCBC",
"2	c #686868",
"3	c #DADADA",
"4	c #DCDCDC",
"5	c #D4D4D4",
"6	c #232323",
"7	c #060606",
"8	c #0E0E0E",
"9	c #595959",
"0	c #0C0C0C",
"a	c #151515",
"b	c #161616",
"c	c #040404",
"d	c #454545",
"e	c #CACACA",
"f	c #CBCBCB",
"g	c #DDDDDD",
"h	c #FEFEFE",
"i	c #4C4C4C",
"j	c #020202",
"k	c #2A2A2A",
"l	c #434343",
"m	c #444444",
"n	c #7C7C7C",
"o	c #C6C6C6",
"p	c #767676",
"q	c #656565",
"r	c #717171",
"s	c #909090",
"t	c #0B0B0B",
"u	c #080808",
"v	c #727272",
"w	c #FAFAFA",
"x	c #F8F8F8",
"y	c #8F8F8F",
"z	c #424242",
"A	c #A1A1A1",
"B	c #A4A4A4",
"C	c #A6A6A6",
"D	c #CFCFCF",
"E	c #4E4E4E",
"F	c #282828",
"G	c #1C1C1C",
"H	c #D2D2D2",
"I	c #2E2E2E",
"J	c #1A1A1A",
"K	c #2C2C2C",
"L	c #F7F7F7",
"M	c #C5C5C5",
"N	c #9B9B9B",
"O	c #8E8E8E",
"P	c #6D6D6D",
"Q	c #FDFDFD",
"R	c #B2B2B2",
"S	c #676767",
"T	c #D7D7D7",
"U	c #D9D9D9",
"V	c #ACACAC",
"          .+@@@@@@@@@@@@@@@@@@@@@@@@@@@@@@@@@@@@@@@@@@@@@@@@@@@#$          ",
"          %&***************************************************=-          ",
"          %&***************************************************=-          ",
"          %&***************************************************=-          ",
"          %&***************************************************=-          ",
"          %&***************************************************=-          ",
"          %&***************************************************=-          ",
"          %&***************************************************=-          ",
"          %&***************************************************=-          ",
"          %&***************************************************=-          ",
"          %&***************************************************=-          ",
";>,,,,,,,,')*********!~{{{{{{{{{{{{{{{{{{{{{{{{{{{{{{]^********&/,,,,,,,,,(",
"_)*******************:<                             [}|*******************1",
"_)*******************:<                             [}|*******************1",
"_)*******************:<                             [}|*******************1",
"_)*******************:<                             [}|*******************1",
"_)*******************:<                             [}|*******************1",
"_)*******************:<                             [}|*******************1",
"_)*******************:<                             [}|*******************1",
"_)*******************:<                             [}|*******************1",
"_)*******************:<                             [}|*******************1",
"23444444444444444444456                   788888888889|*******************1",
"0abbbbbbbbbbbbbbbbbbbac                  [deeeeeeeeefgh*******************1",
"                                         [ih******************************1",
"                                         [ih******************************1",
"                                         [ih******************************1",
"                                         [ih******************************1",
"                                         [ih******************************1",
"                                         [ih******************************1",
"                                         [ih******************************1",
"                                         [ih******************************1",
"                                         [ih******************************1",
"                    jklllllllllllllllllllmn*********************onppppppppq",
"                    7r******************************************st         ",
"                    7r******************************************st         ",
"                    7r******************************************st         ",
"                    7r******************************************st         ",
"                    7r******************************************st         ",
"                    7r******************************************st         ",
"                    7r******************************************st         ",
"                    7r******************************************st         ",
"                    7r******************************************st         ",
"          [[jjjjjjjjuv********************************wxxxxxxxxxyt         ",
"          zABBBBBBBBCD*******************************3EFFFFFFFFFGj         ",
"          %&*****************************************HI                    ",
"          %&*****************************************HI                    ",
"          %&*****************************************HI                    ",
"          %&*****************************************HI                    ",
"          %&*****************************************HI                    ",
"          %&*****************************************HI                    ",
"          %&*****************************************HI                    ",
"          %&*****************************************HI                    ",
"          %&*****************************************HI                    ",
"JKKKKKKKKKvL*******************hMNNNNNNNNNNNNNNNNNNNNO6                    ",
"P|hhhhhhhhh********************xq[[[[[[[[[[[[[[[[[[[[[                     ",
"_)*****************************xq                                          ",
"_)*****************************xq                                          ",
"_)*****************************xq                                          ",
"_)*****************************xq                                          ",
"_)*****************************xq                                          ",
"_)*****************************xq                                          ",
"_)*****************************xq                                          ",
"_)*****************************xq                                          ",
"_)*****************************xq                                          ",
"_)*****************************QRnnnnnnnnnnnnnnnnnnnnnnnnnnnnnnnnnnnnnnnnn~",
"_)************************************************************************1",
"_)************************************************************************1",
"_)************************************************************************1",
"_)************************************************************************1",
"_)************************************************************************1",
"_)************************************************************************1",
"_)************************************************************************1",
"_)************************************************************************1",
"_)************************************************************************1",
"STUUUUUUUUUUUUUUUUUUUUUUUUUUUUUUUUUUUUUUUUUUUUUUUUUUUUUUUUUUUUUUUUUUUUUUUUV"};
