/* XPM */
static char * char2_xpm[] = {
"20 20 39 1",
" 	c None",
".	c #E3E3E3",
"+	c #E4E4E4",
"@	c #E1E1E1",
"#	c #FDFDFD",
"$	c #FFFFFF",
"%	c #FBFBFB",
"&	c #FEFEFE",
"*	c #F9F9F9",
"=	c #CFCFCF",
"-	c #E9E9E9",
";	c #ECECEC",
">	c #DBDBDB",
",	c #E2E2E2",
"'	c #EBEBEB",
")	c #CDCDCD",
"!	c #EFEFEF",
"~	c #CCCCCC",
"{	c #E7E7E7",
"]	c #D5D5D5",
"^	c #D2D2D2",
"/	c #C0C0C0",
"(	c #FAFAFA",
"_	c #C4C4C4",
":	c #D3D3D3",
"<	c #DEDEDE",
"[	c #D1D1D1",
"}	c #8A8A8A",
"|	c #808080",
"1	c #818181",
"2	c #B5B5B5",
"3	c #B6B6B6",
"4	c #D9D9D9",
"5	c #B4B4B4",
"6	c #C1C1C1",
"7	c #DADADA",
"8	c #999999",
"9	c #F3F3F3",
"0	c #F5F5F5",
"   .++++++++++++@   ",
"   #$$$$$$$$$$$$%   ",
"   #$&********#$%   ",
"=-;$$;        =$$;->",
",$$$$'        )$$$$!",
"~{{{{]        ^$$$$!",
"           /((#$$$$!",
"           _$$$$$$$!",
"           :$$$$$><[",
"     }$$$$$$$$$$$|  ",
"     }$$$$$$$$$$$1  ",
"   23/$$$$$$$$4==   ",
"   #$$$$$$$$$$5     ",
"   #$$$$$$$$$$5     ",
"677&$$$$>88888      ",
",$$$$$$$4           ",
",$$$$$$$4           ",
",$$$$$$$9,,,,,,,,,,]",
",$$$$$$$$$$$$$$$$$$!",
"7000000000000000000{"};
