/* XPM */
static char * char3_xpm[] = {
"75 75 92 2",
"  	c None",
". 	c #1F1F1F",
"+ 	c #BABABA",
"@ 	c #EDEDED",
"# 	c #E7E7E7",
"$ 	c #585858",
"% 	c #202020",
"& 	c #C1C1C1",
"* 	c #FFFFFF",
"= 	c #F7F7F7",
"- 	c #5A5A5A",
"; 	c #151515",
"> 	c #6B6B6B",
", 	c #7A7A7A",
"' 	c #ADADAD",
") 	c #FCFCFC",
"! 	c #FAFAFA",
"~ 	c #A3A3A3",
"{ 	c #797979",
"] 	c #3A3A3A",
"^ 	c #010101",
"/ 	c #5F5F5F",
"( 	c #F6F6F6",
"_ 	c #EFEFEF",
": 	c #4E4E4E",
"< 	c #4D4D4D",
"[ 	c #020202",
"} 	c #606060",
"| 	c #2E2E2E",
"1 	c #919191",
"2 	c #929292",
"3 	c #BCBCBC",
"4 	c #FDFDFD",
"5 	c #777777",
"6 	c #313131",
"7 	c #303030",
"8 	c #141414",
"9 	c #3E3E3E",
"0 	c #565656",
"a 	c #040404",
"b 	c #080808",
"c 	c #090909",
"d 	c #454545",
"e 	c #FEFEFE",
"f 	c #949494",
"g 	c #5B5B5B",
"h 	c #505050",
"i 	c #B6B6B6",
"j 	c #B8B8B8",
"k 	c #B9B9B9",
"l 	c #CBCBCB",
"m 	c #101010",
"n 	c #5E5E5E",
"o 	c #F9F9F9",
"p 	c #BBBBBB",
"q 	c #161616",
"r 	c #070707",
"s 	c #434343",
"t 	c #8D8D8D",
"u 	c #8F8F8F",
"v 	c #CECECE",
"w 	c #F2F2F2",
"x 	c #4F4F4F",
"y 	c #0D0D0D",
"z 	c #8B8B8B",
"A 	c #0B0B0B",
"B 	c #8A8A8A",
"C 	c #7C7C7C",
"D 	c #7D7D7D",
"E 	c #262626",
"F 	c #9B9B9B",
"G 	c #FBFBFB",
"H 	c #383838",
"I 	c #393939",
"J 	c #0C0C0C",
"K 	c #F5F5F5",
"L 	c #888888",
"M 	c #C6C6C6",
"N 	c #A0A0A0",
"O 	c #848484",
"P 	c #898989",
"Q 	c #C9C9C9",
"R 	c #767676",
"S 	c #1D1D1D",
"T 	c #0A0A0A",
"U 	c #292929",
"V 	c #C4C4C4",
"W 	c #1E1E1E",
"X 	c #B1B1B1",
"Y 	c #D9D9D9",
"Z 	c #D2D2D2",
"` 	c #484848",
"                    . + @ @ @ @ @ @ @ @ @ @ @ @ @ @ @ @ @ @ @ @ @ @ @ @ @ @ @ @ @ @ @ @ @ @ @ @ @ @ @ @ @ @ @ @ @ @ @ @ @ @ @ @ @ @ @ @ @ @ @ @ @ # $ ",
"                    % & * * * * * * * * * * * * * * * * * * * * * * * * * * * * * * * * * * * * * * * * * * * * * * * * * * * * * * * * * * * * * = - ",
"                    % & * * * * * * * * * * * * * * * * * * * * * * * * * * * * * * * * * * * * * * * * * * * * * * * * * * * * * * * * * * * * * = - ",
"                    % & * * * * * * * * * * * * * * * * * * * * * * * * * * * * * * * * * * * * * * * * * * * * * * * * * * * * * * * * * * * * * = - ",
"                    % & * * * * * * * * * * * * * * * * * * * * * * * * * * * * * * * * * * * * * * * * * * * * * * * * * * * * * * * * * * * * * = - ",
"                    % & * * * * * * * * * * * * * * * * * * * * * * * * * * * * * * * * * * * * * * * * * * * * * * * * * * * * * * * * * * * * * = - ",
"                    % & * * * * * * * * * * * * * * * * * * * * * * * * * * * * * * * * * * * * * * * * * * * * * * * * * * * * * * * * * * * * * = - ",
"                    % & * * * * * * * * * * * * * * * * * * * * * * * * * * * * * * * * * * * * * * * * * * * * * * * * * * * * * * * * * * * * * = - ",
"                    % & * * * * * * * * * * * * * * * * * * * * * * * * * * * * * * * * * * * * * * * * * * * * * * * * * * * * * * * * * * * * * = - ",
"                    % & * * * * * * * * * * * * * * * * * * * * * * * * * * * * * * * * * * * * * * * * * * * * * * * * * * * * * * * * * * * * * = - ",
"                    ; > , , , , , , , , , , , , , , , , , , , , , , , , , , , , , , ' ) * * * * * * * * * * * * * * * * * * * ! ~ , , , , , , , , { ] ",
"                        ^ ^ ^ ^ ^ ^ ^ ^ ^ ^ ^ ^ ^ ^ ^ ^ ^ ^ ^ ^ ^ ^ ^ ^ ^ ^ ^ ^ ^ ^ / ( * * * * * * * * * * * * * * * * * * * _ : ^ ^ ^ ^ ^ ^ ^ ^     ",
"                                                                                    / ( * * * * * * * * * * * * * * * * * * * _ <                     ",
"                                                                                    / ( * * * * * * * * * * * * * * * * * * * _ <                     ",
"                                                                                    / ( * * * * * * * * * * * * * * * * * * * _ <                     ",
"                                                                                    / ( * * * * * * * * * * * * * * * * * * * _ <                     ",
"                                                                                    / ( * * * * * * * * * * * * * * * * * * * _ <                     ",
"                                                                                    / ( * * * * * * * * * * * * * * * * * * * _ <                     ",
"                                                                                    / ( * * * * * * * * * * * * * * * * * * * _ <                     ",
"                                                                                    / ( * * * * * * * * * * * * * * * * * * * _ <                     ",
"                                                                [ [ [ [ [ [ [ [ [ [ } ( * * * * * * * * * * * * * * * * * * * _ <                     ",
"                                                              | 1 2 2 2 2 2 2 2 2 2 3 4 * * * * * * * * 4 5 6 6 6 6 6 6 6 6 6 7 8                     ",
"                                                            ^ 9 4 * * * * * * * * * * * * * * * * * * * ) 0                                           ",
"                                                            ^ 9 4 * * * * * * * * * * * * * * * * * * * ) 0                                           ",
"                                                            ^ 9 4 * * * * * * * * * * * * * * * * * * * ) 0                                           ",
"                                                            ^ 9 4 * * * * * * * * * * * * * * * * * * * ) 0                                           ",
"                                                            ^ 9 4 * * * * * * * * * * * * * * * * * * * ) 0                                           ",
"                                                            ^ 9 4 * * * * * * * * * * * * * * * * * * * ) 0                                           ",
"                                                            ^ 9 4 * * * * * * * * * * * * * * * * * * * ) 0                                           ",
"                                                            ^ 9 4 * * * * * * * * * * * * * * * * * * * ) 0                                           ",
"                                                            ^ 9 4 * * * * * * * * * * * * * * * * * * * ) 0                                           ",
"                                                            ^ 9 4 * * * * * * * * * * * * * * * * * * * ) 0                                           ",
"                                          a b c c c c c c c c d 4 * * * * * * * * * * * * * * * * * * * e f g g g g g g g g g : b                     ",
"                                        ^ h i j j j j j j j k l * * * * * * * * * * * * * * * * * * * * * * * * * * * * * * * k m                     ",
"                                        ^ n o * * * * * * * * * * * * * * * * * * * * * * * * * * * * * * * * * * * * * * * * k m                     ",
"                                        ^ n o * * * * * * * * * * * * * * * * * * * * * * * * * * * * * * * * * * * * * * * * k m                     ",
"                                        ^ n o * * * * * * * * * * * * * * * * * * * * * * * * * * * * * * * * * * * * * * * * k m                     ",
"                                        ^ n o * * * * * * * * * * * * * * * * * * * * * * * * * * * * * * * * * * * * * * * * k m                     ",
"                                        ^ n o * * * * * * * * * * * * * * * * * * * * * * * * * * * * * * * * * * * * * * * * k m                     ",
"                                        ^ n o * * * * * * * * * * * * * * * * * * * * * * * * * * * * * * * * * * * * * * * * k m                     ",
"                                        ^ n o * * * * * * * * * * * * * * * * * * * * * * * * * * * * * * * * * * * * * * * * k m                     ",
"                                        ^ n o * * * * * * * * * * * * * * * * * * * * * * * * * * * * * * * * * * * * * * * * k m                     ",
"                                        ^ n o * * * * * * * * * * * * * * * * * * * * * * * * * * * * * * * * * * * * * * * * p q r r r r r r r r r a ",
"                                        ^ s t u u u u u u u u u u u u u u u u u u u u u u u u u u u u u f v * * * * * * * * * w & 3 3 3 3 3 3 3 3 k x ",
"                                          ^ [ [ [ [ [ [ [ [ [ [ [ [ [ [ [ [ [ [ [ [ [ [ [ [ [ [ [ [ [ [ y z * * * * * * * * * * * * * * * * * * * = - ",
"                                                                                                        A B * * * * * * * * * * * * * * * * * * * = - ",
"                                                                                                        A B * * * * * * * * * * * * * * * * * * * = - ",
"                                                                                                        A B * * * * * * * * * * * * * * * * * * * = - ",
"                                                                                                        A B * * * * * * * * * * * * * * * * * * * = - ",
"                                                                                                        A B * * * * * * * * * * * * * * * * * * * = - ",
"                                                                                                        A B * * * * * * * * * * * * * * * * * * * = - ",
"                                                                                                        A B * * * * * * * * * * * * * * * * * * * = - ",
"                                                                                                        A B * * * * * * * * * * * * * * * * * * * = - ",
"                                                                                                        A B * * * * * * * * * * * * * * * * * * * = - ",
"n C D D D D D D D D D D D D D D D D D D C E                                                             A B * * * * * * * * * * * * * * * * * * * = - ",
"F e * * * * * * * * * * * * * * * * * * G H ^                                                           A B * * * * * * * * * * * * * * * * * * * = - ",
"F e * * * * * * * * * * * * * * * * * * G H ^                                                           A B * * * * * * * * * * * * * * * * * * * = - ",
"F e * * * * * * * * * * * * * * * * * * G H ^                                                           A B * * * * * * * * * * * * * * * * * * * = - ",
"F e * * * * * * * * * * * * * * * * * * G H ^                                                           A B * * * * * * * * * * * * * * * * * * * = - ",
"F e * * * * * * * * * * * * * * * * * * G H ^                                                           A B * * * * * * * * * * * * * * * * * * * = - ",
"F e * * * * * * * * * * * * * * * * * * G H ^                                                           A B * * * * * * * * * * * * * * * * * * * = - ",
"F e * * * * * * * * * * * * * * * * * * G H ^                                                           A B * * * * * * * * * * * * * * * * * * * = - ",
"F e * * * * * * * * * * * * * * * * * * G H ^                                                           A B * * * * * * * * * * * * * * * * * * * = - ",
"F e * * * * * * * * * * * * * * * * * * G I ^ ^ ^ ^ ^ ^ ^ ^ ^ ^ ^ ^ ^ ^ ^ ^ ^ ^ ^ ^ ^ ^ ^ ^ ^ ^ ^ ^ ^ ^ J z * * * * * * * * * * e e e e e e e e e K - ",
"L M M M M M M M M M v = * * * * * * * * e N O O O O O O O O O O O O O O O O O O O O O O O O O O O O O O P Q * * * * * * * * * K R ] ] ] ] ] ] ] ] I S ",
"r T T T T T T T T T U V * * * * * * * * * * * * * * * * * * * * * * * * * * * * * * * * * * * * * * * * * * * * * * * * * * * _ <                     ",
"                    % & * * * * * * * * * * * * * * * * * * * * * * * * * * * * * * * * * * * * * * * * * * * * * * * * * * * _ <                     ",
"                    % & * * * * * * * * * * * * * * * * * * * * * * * * * * * * * * * * * * * * * * * * * * * * * * * * * * * _ <                     ",
"                    % & * * * * * * * * * * * * * * * * * * * * * * * * * * * * * * * * * * * * * * * * * * * * * * * * * * * _ <                     ",
"                    % & * * * * * * * * * * * * * * * * * * * * * * * * * * * * * * * * * * * * * * * * * * * * * * * * * * * _ <                     ",
"                    % & * * * * * * * * * * * * * * * * * * * * * * * * * * * * * * * * * * * * * * * * * * * * * * * * * * * _ <                     ",
"                    % & * * * * * * * * * * * * * * * * * * * * * * * * * * * * * * * * * * * * * * * * * * * * * * * * * * * _ <                     ",
"                    % & * * * * * * * * * * * * * * * * * * * * * * * * * * * * * * * * * * * * * * * * * * * * * * * * * * * _ <                     ",
"                    % & * * * * * * * * * * * * * * * * * * * * * * * * * * * * * * * * * * * * * * * * * * * * * * * * * * * _ <                     ",
"                    W X Y Y Y Y Y Y Y Y Y Y Y Y Y Y Y Y Y Y Y Y Y Y Y Y Y Y Y Y Y Y Y Y Y Y Y Y Y Y Y Y Y Y Y Y Y Y Y Y Y Y Y Z `                     "};
