/* XPM */
static char * char3_xpm[] = {
"20 20 48 1",
" 	c None",
".	c #F0F0F0",
"+	c #FAFAFA",
"@	c #DBDBDB",
"#	c #F4F4F4",
"$	c #FFFFFF",
"%	c #DFDFDF",
"&	c #D5D5D5",
"*	c #DDDDDD",
"=	c #F2F2F2",
"-	c #E0E0E0",
";	c #C3C3C3",
">	c #D3D3D3",
",	c #FCFCFC",
"'	c #D8D8D8",
")	c #959595",
"!	c #D9D9D9",
"~	c #DEDEDE",
"{	c #DADADA",
"]	c #B8B8B8",
"^	c #C1C1C1",
"/	c #BFBFBF",
"(	c #808080",
"_	c #FEFEFE",
":	c #F3F3F3",
"<	c #818181",
"[	c #686868",
"}	c #C2C2C2",
"|	c #EFEFEF",
"1	c #F9F9F9",
"2	c #BABABA",
"3	c #BDBDBD",
"4	c #A6A6A6",
"5	c #D6D6D6",
"6	c #C0C0C0",
"7	c #D1D1D1",
"8	c #ACACAC",
"9	c #E9E9E9",
"0	c #CCCCCC",
"a	c #939393",
"b	c #A0A0A0",
"c	c #9B9B9B",
"d	c #F8F8F8",
"e	c #F6F6F6",
"f	c #FDFDFD",
"g	c #868686",
"h	c #ECECEC",
"i	c #F5F5F5",
"   .+++++++++++++++@",
"   #$$$$$$$$$$$$$$$%",
"   &*******=$$$$$-*;",
"           >$$$$,   ",
"           '$$$$,   ",
"         ))!$$~{'   ",
"        ]$$$$$      ",
"        ]$$$$$      ",
"        ^$$$$$/     ",
"     (,,_$$$$$$$:   ",
"     <$$$$$$$$$$:   ",
"     [}}}}}}}}|$1234",
"              5$$$$%",
"              5$$$$%",
"677778        5$$$$%",
"9$$$$0        5$$$$%",
"9$$$$0        5$$$$%",
"abcd$#~~~~~~~~e$fg  ",
"   #$$$$$$$$$$$$,   ",
"   hiiiiiiiiiiii:   "};
