/* XPM */
static char * char4_xpm[] = {
"20 20 41 1",
" 	c None",
".	c #B4B4B4",
"+	c #E4E4E4",
"@	c #DFDFDF",
"#	c #C9C9C9",
"$	c #FFFFFF",
"%	c #F9F9F9",
"&	c #C8C8C8",
"*	c #8A8A8A",
"=	c #EAEAEA",
"-	c #F4F4F4",
";	c #969696",
">	c #B2B2B2",
",	c #E7E7E7",
"'	c #DBDBDB",
")	c #ECECEC",
"!	c #707070",
"~	c #BBBBBB",
"{	c #CFCFCF",
"]	c #A8A8A8",
"^	c #F0F0F0",
"/	c #D8D8D8",
"(	c #A1A1A1",
"_	c #E8E8E8",
":	c #E5E5E5",
"<	c #B7B7B7",
"[	c #C0C0C0",
"}	c #DCDCDC",
"|	c #FBFBFB",
"1	c #B5B5B5",
"2	c #AFAFAF",
"3	c #E9E9E9",
"4	c #B8B8B8",
"5	c #CACACA",
"6	c #DADADA",
"7	c #C1C1C1",
"8	c #B9B9B9",
"9	c #BFBFBF",
"0	c #737373",
"a	c #ACACAC",
"b	c #676767",
"        .+++++++@   ",
"        #$$$$$$$%   ",
"        &$$$$$$$%   ",
"     *==-$$$$$$$%   ",
"     ;$$$$$$$$$$%   ",
"     >$$,'')$$$$%   ",
"  !$$$$$~  {$$$$%   ",
"  !$$$$$~  {$$$$%   ",
"  ]$$^/'(  {$$$$%   ",
"_$$$$/     {$$$$%   ",
"_$$$$/     {$$$$%   ",
"_$$$$:<[[[[}$$$$|1[2",
"_$$$$$$$$$$$$$$$$$$3",
"_$$$$$$$$$$$$$$$$$$3",
"455555555556$$$$$758",
"           9$$$$$0  ",
"           9$$$$$0  ",
"           9$$$$$0  ",
"           9$$$$$0  ",
"           a+++++b  "};
