/* XPM */
static char * char4_xpm[] = {
"75 75 68 1",
" 	c None",
".	c #1F1F1F",
"+	c #787878",
"@	c #7A7A7A",
"#	c #757575",
"$	c #1C1C1C",
"%	c #2C2C2C",
"&	c #E9E9E9",
"*	c #FFFFFF",
"=	c #DBDBDB",
"-	c #272727",
";	c #060606",
">	c #4E4E4E",
",	c #686868",
"'	c #828282",
")	c #F6F6F6",
"!	c #0B0B0B",
"~	c #939393",
"{	c #020202",
"]	c #444444",
"^	c #7E7E7E",
"/	c #C8C8C8",
"(	c #C9C9C9",
"_	c #484848",
":	c #404040",
"<	c #727272",
"[	c #EEEEEE",
"}	c #030303",
"|	c #6F6F6F",
"1	c #FEFEFE",
"2	c #B5B5B5",
"3	c #090909",
"4	c #414141",
"5	c #E6E6E6",
"6	c #3F3F3F",
"7	c #555555",
"8	c #575757",
"9	c #A0A0A0",
"0	c #BEBEBE",
"a	c #646464",
"b	c #5F5F5F",
"c	c #515151",
"d	c #050505",
"e	c #949494",
"f	c #080808",
"g	c #ADADAD",
"h	c #393939",
"i	c #6C6C6C",
"j	c #EDEDED",
"k	c #E5E5E5",
"l	c #585858",
"m	c #2B2B2B",
"n	c #FDFDFD",
"o	c #9A9A9A",
"p	c #9B9B9B",
"q	c #FCFCFC",
"r	c #202020",
"s	c #3E3E3E",
"t	c #CECECE",
"u	c #8D8D8D",
"v	c #303030",
"w	c #212121",
"x	c #161616",
"y	c #C2C2C2",
"z	c #040404",
"A	c #0F0F0F",
"B	c #767676",
"C	c #4A4A4A",
"                               .+@@@@@@@@@@@@@@@@@@@@@@@@@@@@@@#$          ",
"                               %&******************************=-          ",
"                               %&******************************=-          ",
"                               %&******************************=-          ",
"                               %&******************************=-          ",
"                               %&******************************=-          ",
"                               %&******************************=-          ",
"                               %&******************************=-          ",
"                               %&******************************=-          ",
"                               %&******************************=-          ",
"                               %&******************************=-          ",
"                    ;>,,,,,,,,,')******************************=-          ",
"                    !~*****************************************=-          ",
"                    !~*****************************************=-          ",
"                    !~*****************************************=-          ",
"                    !~*****************************************=-          ",
"                    !~*****************************************=-          ",
"                    !~*****************************************=-          ",
"                    !~*****************************************=-          ",
"                    !~*****************************************=-          ",
"                    !~*****************************************=-          ",
"         {]+++++++++^/*********(_:::::::::<[*******************=-          ",
"         }|1*******************23         45*******************=-          ",
"         }|1*******************23         45*******************=-          ",
"         }|1*******************23         45*******************=-          ",
"         }|1*******************23         45*******************=-          ",
"         }|1*******************23         45*******************=-          ",
"         }|1*******************23         45*******************=-          ",
"         }|1*******************23         45*******************=-          ",
"         }|1*******************23         45*******************=-          ",
"         }|1*******************23         45*******************=-          ",
"         }|1*******************23         45*******************=-          ",
"67777777789**********0abbbbbbbbcd         45*******************=-          ",
"~1*******************ef                   45*******************=-          ",
"~1*******************ef                   45*******************=-          ",
"~1*******************ef                   45*******************=-          ",
"~1*******************ef                   45*******************=-          ",
"~1*******************ef                   45*******************=-          ",
"~1*******************ef                   45*******************=-          ",
"~1*******************ef                   45*******************=-          ",
"~1*******************ef                   45*******************=-          ",
"~1*******************ef                   45*******************=-          ",
"~1*******************ef                   45*******************=-          ",
"~1*******************g6hhhhhhhhhhhhhhhhhhhij*******************klhhhhhhhhhm",
"~1********************111111111111111111111*********************111111111no",
"~1***********************************************************************1p",
"~1***********************************************************************1p",
"~1***********************************************************************1p",
"~1***********************************************************************1p",
"~1***********************************************************************1p",
"~1***********************************************************************1p",
"~1***********************************************************************1p",
"~1***********************************************************************1p",
"~qnnnnnnnnnnnnnnnnnnnnnnnnnnnnnnnnnnnnnnnn1**********************nnnnnnnnno",
"r%%%%%%%%%%%%%%%%%%%%%%%%%%%%%%%%%%%%%%%%%st********************uv%%%%%%%%w",
"                                          xy********************#z         ",
"                                          xy********************#z         ",
"                                          xy********************#z         ",
"                                          xy********************#z         ",
"                                          xy********************#z         ",
"                                          xy********************#z         ",
"                                          xy********************#z         ",
"                                          xy********************#z         ",
"                                          xy********************#z         ",
"                                          xy********************#z         ",
"                                          xy********************#z         ",
"                                          xy********************#z         ",
"                                          xy********************#z         ",
"                                          xy********************#z         ",
"                                          xy********************#z         ",
"                                          xy********************#z         ",
"                                          xy********************#z         ",
"                                          xy********************#z         ",
"                                          xy********************#z         ",
"                                          AiBBBBBBBBBBBBBBBBBBBBC}         "};
