/* XPM */
static char * char5_xpm[] = {
"20 20 37 1",
" 	c None",
".	c #CFCFCF",
"+	c #E4E4E4",
"@	c #E0E0E0",
"#	c #E6E6E6",
"$	c #FFFFFF",
"%	c #F9F9F9",
"&	c #E5E5E5",
"*	c #E1E1E1",
"=	c #D9D9D9",
"-	c #FAFAFA",
";	c #C9C9C9",
">	c #DEDEDE",
",	c #DBDBDB",
"'	c #EEEEEE",
")	c #FCFCFC",
"!	c #BCBCBC",
"~	c #BEBEBE",
"{	c #B0B0B0",
"]	c #D1D1D1",
"^	c #EAEAEA",
"/	c #BABABA",
"(	c #CECECE",
"_	c #A7A7A7",
":	c #EBEBEB",
"<	c #959595",
"[	c #A4A4A4",
"}	c #9D9D9D",
"|	c #F6F6F6",
"1	c #F4F4F4",
"2	c #E2E2E2",
"3	c #F5F5F5",
"4	c #868686",
"5	c #F2F2F2",
"6	c #767676",
"7	c #E9E9E9",
"8	c #727272",
".+++++++++++++++@   ",
"#$$$$$$$$$$$$$$$%   ",
"#$$$$%&&&&&&&&&&*   ",
"#$$$$=              ",
"#$$$$=              ",
"#$$$$*              ",
"#$$$$$$$$$$$$$$$-   ",
"#$$$$$$$$$$$$$$$%   ",
";>>>>>>>>>>>>,'$)!~{",
"              ]$$$$^",
"              ]$$$$^",
"              ]$$$$^",
"              ]$$$$^",
"              ]$$$$^",
"/((((_        ]$$$$^",
"#$$$$.        ]$$$$^",
"#$$$$.        ]$$$$:",
"<[}|$1222222223$$4  ",
"   5$$$$$$$$$$$$$6  ",
"   7333333333333|8  "};
