/* XPM */
static char * char5_xpm[] = {
"75 75 68 1",
" 	c None",
".	c #595959",
"+	c #7A7A7A",
"@	c #767676",
"#	c #202020",
"$	c #8B8B8B",
"%	c #FDFDFD",
"&	c #FFFFFF",
"*	c #DFDFDF",
"=	c #2C2C2C",
"-	c #E3E3E3",
";	c #B2B2B2",
">	c #AFAFAF",
",	c #A3A3A3",
"'	c #252525",
")	c #9D9D9D",
"!	c #0F0F0F",
"~	c #060606",
"{	c #050505",
"]	c #010101",
"^	c #9B9B9B",
"/	c #0A0A0A",
"(	c #C6C6C6",
"_	c #6F6F6F",
":	c #696969",
"<	c #646464",
"[	c #1A1A1A",
"}	c #E1E1E1",
"|	c #393939",
"1	c #101010",
"2	c #0C0C0C",
"3	c #515151",
"4	c #757575",
"5	c #777777",
"6	c #ACACAC",
"7	c #DDDDDD",
"8	c #D4D4D4",
"9	c #959595",
"0	c #030303",
"a	c #626262",
"b	c #4C4C4C",
"c	c #6C6C6C",
"d	c #303030",
"e	c #505050",
"f	c #020202",
"g	c #FEFEFE",
"h	c #A2A2A2",
"i	c #7E7E7E",
"j	c #CCCCCC",
"k	c #CDCDCD",
"l	c #D2D2D2",
"m	c #F5F5F5",
"n	c #A7A7A7",
"o	c #7D7D7D",
"p	c #7C7C7C",
"q	c #B0B0B0",
"r	c #434343",
"s	c #3F3F3F",
"t	c #323232",
"u	c #090909",
"v	c #0D0D0D",
"w	c #232323",
"x	c #B4B4B4",
"y	c #7B7B7B",
"z	c #181818",
"A	c #161616",
"B	c #D9D9D9",
"C	c #727272",
".++++++++++++++++++++++++++++++++++++++++++++++++++++++++++++++@#          ",
"$%&&&&&&&&&&&&&&&&&&&&&&&&&&&&&&&&&&&&&&&&&&&&&&&&&&&&&&&&&&&&&*=          ",
"$%&&&&&&&&&&&&&&&&&&&&&&&&&&&&&&&&&&&&&&&&&&&&&&&&&&&&&&&&&&&&&*=          ",
"$%&&&&&&&&&&&&&&&&&&&&&&&&&&&&&&&&&&&&&&&&&&&&&&&&&&&&&&&&&&&&&*=          ",
"$%&&&&&&&&&&&&&&&&&&&&&&&&&&&&&&&&&&&&&&&&&&&&&&&&&&&&&&&&&&&&&*=          ",
"$%&&&&&&&&&&&&&&&&&&&&&&&&&&&&&&&&&&&&&&&&&&&&&&&&&&&&&&&&&&&&&*=          ",
"$%&&&&&&&&&&&&&&&&&&&&&&&&&&&&&&&&&&&&&&&&&&&&&&&&&&&&&&&&&&&&&*=          ",
"$%&&&&&&&&&&&&&&&&&&&&&&&&&&&&&&&&&&&&&&&&&&&&&&&&&&&&&&&&&&&&&*=          ",
"$%&&&&&&&&&&&&&&&&&&&&&&&&&&&&&&&&&&&&&&&&&&&&&&&&&&&&&&&&&&&&&*=          ",
"$%&&&&&&&&&&&&&&&&&&&&&&&&&&&&&&&&&&&&&&&&&&&&&&&&&&&&&&&&&&&&&*=          ",
"$%&&&&&&&&&&&&&&&&&&&-;>>>>>>>>>>>>>>>>>>>>>>>>>>>>>>>>>>>>>>>>,'          ",
"$%&&&&&&&&&&&&&&&&&&&)!~~~~~~~~~~~~~~~~~~~~~~~~~~~~~~~~~~~~~~~~{]          ",
"$%&&&&&&&&&&&&&&&&&&&^/                                                    ",
"$%&&&&&&&&&&&&&&&&&&&^/                                                    ",
"$%&&&&&&&&&&&&&&&&&&&^/                                                    ",
"$%&&&&&&&&&&&&&&&&&&&^/                                                    ",
"$%&&&&&&&&&&&&&&&&&&&^/                                                    ",
"$%&&&&&&&&&&&&&&&&&&&^/                                                    ",
"$%&&&&&&&&&&&&&&&&&&&^/                                                    ",
"$%&&&&&&&&&&&&&&&&&&&^/                                                    ",
"$%&&&&&&&&&&&&&&&&&&&^/                                                    ",
"$%&&&&&&&&&&&&&&&&&&&(_::::::::::::::::::::::::::::::::::::::::<[          ",
"$%&&&&&&&&&&&&&&&&&&&&&&&&&&&&&&&&&&&&&&&&&&&&&&&&&&&&&&&&&&&&&*=          ",
"$%&&&&&&&&&&&&&&&&&&&&&&&&&&&&&&&&&&&&&&&&&&&&&&&&&&&&&&&&&&&&&*=          ",
"$%&&&&&&&&&&&&&&&&&&&&&&&&&&&&&&&&&&&&&&&&&&&&&&&&&&&&&&&&&&&&&*=          ",
"$%&&&&&&&&&&&&&&&&&&&&&&&&&&&&&&&&&&&&&&&&&&&&&&&&&&&&&&&&&&&&&*=          ",
"$%&&&&&&&&&&&&&&&&&&&&&&&&&&&&&&&&&&&&&&&&&&&&&&&&&&&&&&&&&&&&&*=          ",
"$%&&&&&&&&&&&&&&&&&&&&&&&&&&&&&&&&&&&&&&&&&&&&&&&&&&&&&&&&&&&&&*=          ",
"$%&&&&&&&&&&&&&&&&&&&&&&&&&&&&&&&&&&&&&&&&&&&&&&&&&&&&&&&&&&&&&*=          ",
"$%&&&&&&&&&&&&&&&&&&&&&&&&&&&&&&&&&&&&&&&&&&&&&&&&&&&&&&&&&&&&&*=          ",
"$%&&&&&&&&&&&&&&&&&&&&&&&&&&&&&&&&&&&&&&&&&&&&&&&&&&&&&&&&&&&&&*=          ",
"$%&&&&&&&&&&&&&&&&&&&&&&&&&&&&&&&&&&&&&&&&&&&&&&&&&&&&&&&&&&&&&}|1111111112",
"34@@@@@@@@@@@@@@@@@@@@@@@@@@@@@@@@@@@@@@@@@@@@@@@@@@56&&&&&&&&&%78888888889",
"                                                    0a&&&&&&&&&&&&&&&&&&&&,",
"                                                    0a&&&&&&&&&&&&&&&&&&&&,",
"                                                    0a&&&&&&&&&&&&&&&&&&&&,",
"                                                    0a&&&&&&&&&&&&&&&&&&&&,",
"                                                    0a&&&&&&&&&&&&&&&&&&&&,",
"                                                    0a&&&&&&&&&&&&&&&&&&&&,",
"                                                    0a&&&&&&&&&&&&&&&&&&&&,",
"                                                    0a&&&&&&&&&&&&&&&&&&&&,",
"                                                    0a&&&&&&&&&&&&&&&&&&&&,",
"                                                    0a&&&&&&&&&&&&&&&&&&&&,",
"                                                    0a&&&&&&&&&&&&&&&&&&&&,",
"                                                    0a&&&&&&&&&&&&&&&&&&&&,",
"                                                    0a&&&&&&&&&&&&&&&&&&&&,",
"                                                    0a&&&&&&&&&&&&&&&&&&&&,",
"                                                    0a&&&&&&&&&&&&&&&&&&&&,",
"                                                    0a&&&&&&&&&&&&&&&&&&&&,",
"                                                    0a&&&&&&&&&&&&&&&&&&&&,",
"                                                    0a&&&&&&&&&&&&&&&&&&&&,",
"                                                    0a&&&&&&&&&&&&&&&&&&&&,",
"                                                    0a&&&&&&&&&&&&&&&&&&&&,",
"                                                    0a&&&&&&&&&&&&&&&&&&&&,",
"bccccccccccccccccccccd]                             0a&&&&&&&&&&&&&&&&&&&&,",
"$%&&&&&&&&&&&&&&&&&&&ef                             0a&&&&&&&&&&&&&&&&&&&&,",
"$%&&&&&&&&&&&&&&&&&&&ef                             0a&&&&&&&&&&&&&&&&&&&&,",
"$%&&&&&&&&&&&&&&&&&&&ef                             0a&&&&&&&&&&&&&&&&&&&&,",
"$%&&&&&&&&&&&&&&&&&&&ef                             0a&&&&&&&&&&&&&&&&&&&&,",
"$%&&&&&&&&&&&&&&&&&&&ef                             0a&&&&&&&&&&&&&&&&&&&&,",
"$%&&&&&&&&&&&&&&&&&&&ef                             0a&&&&&&&&&&&&&&&&&&&&,",
"$%&&&&&&&&&&&&&&&&&&&ef                             0a&&&&&&&&&&&&&&&&&&&&,",
"$%&&&&&&&&&&&&&&&&&&&ef                             0a&&&&&&&&&&&&&&&&&&&&,",
"$%&&&&&&&&&&&&&&&&&&&ef                             0a&&&&&&&&&&&&&&&&&&&gh",
"ijkkkkkkkklm&&&&&&&&&nopppppppppppppppppppppppppppppiq&&&&&&&&&&)rsssssssst",
"uvvvvvvvvvwx&&&&&&&&&&&&&&&&&&&&&&&&&&&&&&&&&&&&&&&&&&&&&&&&&&&&y{         ",
"          zq&&&&&&&&&&&&&&&&&&&&&&&&&&&&&&&&&&&&&&&&&&&&&&&&&&&&y{         ",
"          zq&&&&&&&&&&&&&&&&&&&&&&&&&&&&&&&&&&&&&&&&&&&&&&&&&&&&y{         ",
"          zq&&&&&&&&&&&&&&&&&&&&&&&&&&&&&&&&&&&&&&&&&&&&&&&&&&&&y{         ",
"          zq&&&&&&&&&&&&&&&&&&&&&&&&&&&&&&&&&&&&&&&&&&&&&&&&&&&&y{         ",
"          zq&&&&&&&&&&&&&&&&&&&&&&&&&&&&&&&&&&&&&&&&&&&&&&&&&&&&y{         ",
"          zq&&&&&&&&&&&&&&&&&&&&&&&&&&&&&&&&&&&&&&&&&&&&&&&&&&&&y{         ",
"          zq&&&&&&&&&&&&&&&&&&&&&&&&&&&&&&&&&&&&&&&&&&&&&&&&&&&&y{         ",
"          zq&&&&&&&&&&&&&&&&&&&&&&&&&&&&&&&&&&&&&&&&&&&&&&&&&&&&y{         ",
"          AhBBBBBBBBBBBBBBBBBBBBBBBBBBBBBBBBBBBBBBBBBBBBBBBBBBBBC{         "};
