/* XPM */
static char * char6_xpm[] = {
"20 20 35 1",
" 	c None",
".	c #868686",
"+	c #E5E5E5",
"@	c #E4E4E4",
"#	c #DDDDDD",
"$	c #949494",
"%	c #FFFFFF",
"&	c #F6F6F6",
"*	c #9A9A9A",
"=	c #F5F5F5",
"-	c #E3E3E3",
";	c #DCDCDC",
">	c #6C6C6C",
",	c #C7C7C7",
"'	c #9E9E9E",
")	c #F2F2F2",
"!	c #D9D9D9",
"~	c #DBDBDB",
"{	c #ABABAB",
"]	c #D8D8D8",
"^	c #EBEBEB",
"/	c #C4C4C4",
"(	c #C8C8C8",
"_	c #C1C1C1",
":	c #E2E2E2",
"<	c #ADADAD",
"[	c #FBFBFB",
"}	c #BEBEBE",
"|	c #C0C0C0",
"1	c #FDFDFD",
"2	c #FEFEFE",
"3	c #696969",
"4	c #F3F3F3",
"5	c #F9F9F9",
"6	c #888888",
"     .+@@@@@@@@@#   ",
"     $%%%%%%%%%%&   ",
"     *%%=-------;   ",
"  >%%%%%,           ",
"  >%%%%%,           ",
"  '%%)!~{           ",
"+%%%%]              ",
"+%%%%]              ",
"+%%%%^/(((((((((_   ",
"+%%%%%%%%%%%%%%%&   ",
"+%%%%%%%%%%%%%%%&   ",
"+%%%%:<      <@%[}|{",
"+%%%%]        !%%%%-",
"+%%%%]        !%%%%-",
"+%%%%]        !%%%%-",
"+%%%%]        !%%%%-",
"@12%%]        !%%21:",
"  34%5++++++++5%%6  ",
"   )%%%%%%%%%%%%%   ",
"   !@@@@@@@@@@@@@   "};
