/* XPM */
static char * char6_xpm[] = {
"75 75 86 1",
" 	c None",
".	c #080808",
"+	c #5C5C5C",
"@	c #7A7A7A",
"#	c #727272",
"$	c #131313",
"%	c #0B0B0B",
"&	c #8F8F8F",
"*	c #FFFFFF",
"=	c #CACACA",
"-	c #1A1A1A",
";	c #151515",
">	c #272727",
",	c #303030",
"'	c #A1A1A1",
")	c #CDCDCD",
"!	c #A6A6A6",
"~	c #A5A5A5",
"{	c #929292",
"]	c #020202",
"^	c #666666",
"/	c #F8F8F8",
"(	c #FAFAFA",
"_	c #FEFEFE",
":	c #6B6B6B",
"<	c #070707",
"[	c #040404",
"}	c #010101",
"|	c #686868",
"1	c #FDFDFD",
"2	c #696969",
"3	c #030303",
"4	c #4F4F4F",
"5	c #777777",
"6	c #787878",
"7	c #B0B0B0",
"8	c #B1B1B1",
"9	c #474747",
"0	c #404040",
"a	c #414141",
"b	c #262626",
"c	c #838383",
"d	c #959595",
"e	c #090909",
"f	c #A0A0A0",
"g	c #222222",
"h	c #171717",
"i	c #EAEAEA",
"j	c #E9E9E9",
"k	c #C1C1C1",
"l	c #191919",
"m	c #B7B7B7",
"n	c #535353",
"o	c #4D4D4D",
"p	c #555555",
"q	c #BDBDBD",
"r	c #232323",
"s	c #0A0A0A",
"t	c #060606",
"u	c #0C0C0C",
"v	c #9E9E9E",
"w	c #CBCBCB",
"x	c #C4C4C4",
"y	c #C3C3C3",
"z	c #FCFCFC",
"A	c #767676",
"B	c #808080",
"C	c #F2F2F2",
"D	c #F4F4F4",
"E	c #F6F6F6",
"F	c #989898",
"G	c #0F0F0F",
"H	c #121212",
"I	c #F1F1F1",
"J	c #747474",
"K	c #363636",
"L	c #BBBBBB",
"M	c #E1E1E1",
"N	c #AEAEAE",
"O	c #B2B2B2",
"P	c #E4E4E4",
"Q	c #FBFBFB",
"R	c #757575",
"S	c #5F5F5F",
"T	c #101010",
"U	c #3E3E3E",
"                    .+@@@@@@@@@@@@@@@@@@@@@@@@@@@@@@@@@@@@@@@@@#$          ",
"                    %&*****************************************=-          ",
"                    %&*****************************************=-          ",
"                    %&*****************************************=-          ",
"                    %&*****************************************=-          ",
"                    %&*****************************************=-          ",
"                    %&*****************************************=-          ",
"                    %&*****************************************=-          ",
"                    %&*****************************************=-          ",
"                    %&*****************************************=-          ",
"          ;>>>>>>>>>,'**********)!~~~~~~~~~~~~~~~~~~~~~~~~~~~~~{;          ",
"         ]^/(((((((((_**********:<[[[[[[[[[[[[[[[[[[[[[[[[[[[[[[}          ",
"         ]|1********************23                                         ",
"         ]|1********************23                                         ",
"         ]|1********************23                                         ",
"         ]|1********************23                                         ",
"         ]|1********************23                                         ",
"         ]|1********************23                                         ",
"         ]|1********************23                                         ",
"         ]|1********************23                                         ",
"         ]|1********************23                                         ",
"45666666667_*********8900000000ab}                                         ",
"c1*******************de                                                    ",
"c1*******************de                                                    ",
"c1*******************de                                                    ",
"c1*******************de                                                    ",
"c1*******************de                                                    ",
"c1*******************de                                                    ",
"c1*******************de                                                    ",
"c1*******************de                                                    ",
"c1*******************de                                                    ",
"c1*******************fg----------------------------------------h[          ",
"c1*******************(ijjjjjjjjjjjjjjjjjjjjjjjjjjjjjjjjjjjjjjjjkl          ",
"c1*************************************************************=-          ",
"c1*************************************************************=-          ",
"c1*************************************************************=-          ",
"c1*************************************************************=-          ",
"c1*************************************************************=-          ",
"c1*************************************************************=-          ",
"c1*************************************************************=-          ",
"c1*************************************************************=-          ",
"c1*************************************************************=-          ",
"c1*******************mnooooooooooooooooooooooooooooopq*********)rssssssssst",
"c1*******************de                             uv*********/wxxxxxxxxy2",
"c1*******************de                             uv*******************zA",
"c1*******************de                             uv*******************zA",
"c1*******************de                             uv*******************zA",
"c1*******************de                             uv*******************zA",
"c1*******************de                             uv*******************zA",
"c1*******************de                             uv*******************zA",
"c1*******************de                             uv*******************zA",
"c1*******************de                             uv*******************zA",
"c1*******************de                             uv*******************zA",
"c1*******************de                             uv*******************zA",
"c1*******************de                             uv*******************zA",
"c1*******************de                             uv*******************zA",
"c1*******************de                             uv*******************zA",
"c1*******************de                             uv*******************zA",
"c1*******************de                             uv*******************zA",
"c1*******************de                             uv*******************zA",
"c1*******************de                             uv*******************zA",
"c1*******************de                             uv*******************zA",
"c1*******************de                             uv*******************zA",
"BCDDDDDDDDE1*********FGtttttttttttttttttttttttttttttHf**********(DDDDDDDDIJ",
"hgggggggggKL*********M8NNNNNNNNNNNNNNNNNNNNNNNNNNNNNOP*********QRrgggggggg;",
"          h7***************************************************(S          ",
"          h7***************************************************(S          ",
"          h7***************************************************(S          ",
"          h7***************************************************(S          ",
"          h7***************************************************(S          ",
"          h7***************************************************(S          ",
"          h7***************************************************(S          ",
"          h7***************************************************(S          ",
"          h7***************************************************(S          ",
"          T^AAAAAAAAAAAAAAAAAAAAAAAAAAAAAAAAAAAAAAAAAAAAAAAAAAAAU          "};
