/* XPM */
static char * char7_xpm[] = {
"20 20 37 1",
" 	c None",
".	c #CCCCCC",
"+	c #E4E4E4",
"@	c #D5D5D5",
"#	c #E3E3E3",
"$	c #FFFFFF",
"%	c #EDEDED",
"&	c #FCFCFC",
"*	c #E5E5E5",
"=	c #F7F7F7",
"-	c #E9E9E9",
";	c #CFCFCF",
">	c #CECECE",
",	c #E7E7E7",
"'	c #D3D3D3",
")	c #D4D4D4",
"!	c #EBEBEB",
"~	c #D7D7D7",
"{	c #C1C1C1",
"]	c #FAFAFA",
"^	c #FDFDFD",
"/	c #777777",
"(	c #C5C5C5",
"_	c #7C7C7C",
":	c #919191",
"<	c #BEBEBE",
"[	c #BDBDBD",
"}	c #DEDEDE",
"|	c #C6C6C6",
"1	c #BFBFBF",
"2	c #B0B0B0",
"3	c #B4B4B4",
"4	c #B6B6B6",
"5	c #DCDCDC",
"6	c #B7B7B7",
"7	c #F3F3F3",
"8	c #F5F5F5",
".++++++++++++++++++@",
"#$$$$$$$$$$$$$$$$$$%",
"#$$$$&********=$$$$%",
"#$$$$-        ;$$$$%",
"#$$$$-        ;$$$$%",
">,,,,'        )$$!,~",
"           {]]^$$/  ",
"           ($$$$$_  ",
"        :<[}$$@||   ",
"        1$$$$$2     ",
"        1$$$$$2     ",
"      34)$$5;;      ",
"      &$$$$6        ",
"      &$$$$6        ",
"      &$$$$6        ",
"      &$$$$6        ",
"      &$$$$6        ",
"      &$$$$6        ",
"      &$$$$6        ",
"      788882        "};
