/* XPM */
static char * char7_xpm[] = {
"75 75 75 1",
" 	c None",
".	c #505050",
"+	c #797979",
"@	c #7A7A7A",
"#	c #6A6A6A",
"$	c #FCFCFC",
"%	c #FFFFFF",
"&	c #B2B2B2",
"*	c #FBFBFB",
"=	c #B9B9B9",
"-	c #AFAFAF",
";	c #CCCCCC",
">	c #E5E5E5",
",	c #242424",
"'	c #060606",
")	c #070707",
"!	c #5A5A5A",
"~	c #FDFDFD",
"{	c #E4E4E4",
"]	c #1F1F1F",
"^	c #010101",
"/	c #575757",
"(	c #737373",
"_	c #DBDBDB",
":	c #DCDCDC",
"<	c #CFCFCF",
"[	c #1E1E1E",
"}	c #0E0E0E",
"|	c #0F0F0F",
"1	c #606060",
"2	c #F3F3F3",
"3	c #DEDEDE",
"4	c #A6A6A6",
"5	c #0D0D0D",
"6	c #161616",
"7	c #151515",
"8	c #040404",
"9	c #020202",
"0	c #4D4D4D",
"a	c #CACACA",
"b	c #CBCBCB",
"c	c #DFDFDF",
"d	c #929292",
"e	c #1D1D1D",
"f	c #111111",
"g	c #545454",
"h	c #888888",
"i	c #080808",
"j	c #101010",
"k	c #121212",
"l	c #5F5F5F",
"m	c #D4D4D4",
"n	c #7D7D7D",
"o	c #1C1C1C",
"p	c #BFBFBF",
"q	c #D5D5D5",
"r	c #CECECE",
"s	c #363636",
"t	c #0B0B0B",
"u	c #282828",
"v	c #202020",
"w	c #F8F8F8",
"x	c #C8C8C8",
"y	c #2E2E2E",
"z	c #9B9B9B",
"A	c #A4A4A4",
"B	c #F6F6F6",
"C	c #5C5C5C",
"D	c #090909",
"E	c #3A3A3A",
"F	c #E0E0E0",
"G	c #3E3E3E",
"H	c #C9C9C9",
"I	c #D9D9D9",
"J	c #D7D7D7",
".+@@@@@@@@@@@@@@@@@@@@@@@@@@@@@@@@@@@@@@@@@@@@@@@@@@@@@@@@@@@@@@@@@@@@@@@@#",
"@$%%%%%%%%%%%%%%%%%%%%%%%%%%%%%%%%%%%%%%%%%%%%%%%%%%%%%%%%%%%%%%%%%%%%%%%%&",
"@$%%%%%%%%%%%%%%%%%%%%%%%%%%%%%%%%%%%%%%%%%%%%%%%%%%%%%%%%%%%%%%%%%%%%%%%%&",
"@$%%%%%%%%%%%%%%%%%%%%%%%%%%%%%%%%%%%%%%%%%%%%%%%%%%%%%%%%%%%%%%%%%%%%%%%%&",
"@$%%%%%%%%%%%%%%%%%%%%%%%%%%%%%%%%%%%%%%%%%%%%%%%%%%%%%%%%%%%%%%%%%%%%%%%%&",
"@$%%%%%%%%%%%%%%%%%%%%%%%%%%%%%%%%%%%%%%%%%%%%%%%%%%%%%%%%%%%%%%%%%%%%%%%%&",
"@$%%%%%%%%%%%%%%%%%%%%%%%%%%%%%%%%%%%%%%%%%%%%%%%%%%%%%%%%%%%%%%%%%%%%%%%%&",
"@$%%%%%%%%%%%%%%%%%%%%%%%%%%%%%%%%%%%%%%%%%%%%%%%%%%%%%%%%%%%%%%%%%%%%%%%%&",
"@$%%%%%%%%%%%%%%%%%%%%%%%%%%%%%%%%%%%%%%%%%%%%%%%%%%%%%%%%%%%%%%%%%%%%%%%%&",
"@$%%%%%%%%%%%%%%%%%%%%%%%%%%%%%%%%%%%%%%%%%%%%%%%%%%%%%%%%%%%%%%%%%%%%%%%%&",
"@$%%%%%%%%%%%%%%%%%%%*=------------------------------;%%%%%%%%%%%%%%%%%%%%&",
"@$%%%%%%%%%%%%%%%%%%%>,''''''''''''''''''''''''''''')!~%%%%%%%%%%%%%%%%%%%&",
"@$%%%%%%%%%%%%%%%%%%%{]                             ^/~%%%%%%%%%%%%%%%%%%%&",
"@$%%%%%%%%%%%%%%%%%%%{]                             ^/~%%%%%%%%%%%%%%%%%%%&",
"@$%%%%%%%%%%%%%%%%%%%{]                             ^/~%%%%%%%%%%%%%%%%%%%&",
"@$%%%%%%%%%%%%%%%%%%%{]                             ^/~%%%%%%%%%%%%%%%%%%%&",
"@$%%%%%%%%%%%%%%%%%%%{]                             ^/~%%%%%%%%%%%%%%%%%%%&",
"@$%%%%%%%%%%%%%%%%%%%{]                             ^/~%%%%%%%%%%%%%%%%%%%&",
"@$%%%%%%%%%%%%%%%%%%%{]                             ^/~%%%%%%%%%%%%%%%%%%%&",
"@$%%%%%%%%%%%%%%%%%%%{]                             ^/~%%%%%%%%%%%%%%%%%%%&",
"@$%%%%%%%%%%%%%%%%%%%{]                             ^/~%%%%%%%%%%%%%%%%%%%&",
"(_:::::::::::::::::::<[                   '}}}}}}}}}|1~%%%%%%%%%23::::::::4",
"56666666666666666666678                  90aaaaaaaaabc%%%%%%%%%%de66666666f",
"                                         9g%%%%%%%%%%%%%%%%%%%%%hi         ",
"                                         9g%%%%%%%%%%%%%%%%%%%%%hi         ",
"                                         9g%%%%%%%%%%%%%%%%%%%%%hi         ",
"                                         9g%%%%%%%%%%%%%%%%%%%%%hi         ",
"                                         9g%%%%%%%%%%%%%%%%%%%%%hi         ",
"                                         9g%%%%%%%%%%%%%%%%%%%%%hi         ",
"                                         9g%%%%%%%%%%%%%%%%%%%%%hi         ",
"                                         9g%%%%%%%%%%%%%%%%%%%%%hi         ",
"                               9|jjjjjjjjkl%%%%%%%%%%*:mmmmmmmmmn)         ",
"                               opmmmmmmmmq>%%%%%%%%%%rsjjjjjjjjjt^         ",
"                               [q%%%%%%%%%%%%%%%%%%%%au                    ",
"                               [q%%%%%%%%%%%%%%%%%%%%au                    ",
"                               [q%%%%%%%%%%%%%%%%%%%%au                    ",
"                               [q%%%%%%%%%%%%%%%%%%%%au                    ",
"                               [q%%%%%%%%%%%%%%%%%%%%au                    ",
"                               [q%%%%%%%%%%%%%%%%%%%%au                    ",
"                               [q%%%%%%%%%%%%%%%%%%%%au                    ",
"                               [q%%%%%%%%%%%%%%%%%%%%au                    ",
"                               [q%%%%%%%%%%%%%%%%%%%%au                    ",
"                      ^9999999^vq%%%%%%%%%%*wwwwwwwwwxu                    ",
"                     yzAAAAAAAA-B%%%%%%%%%$Cuuuuuuuuu,D                    ",
"                     EF%%%%%%%%%%%%%%%%%%%*G^                              ",
"                     EF%%%%%%%%%%%%%%%%%%%*G^                              ",
"                     EF%%%%%%%%%%%%%%%%%%%*G^                              ",
"                     EF%%%%%%%%%%%%%%%%%%%*G^                              ",
"                     EF%%%%%%%%%%%%%%%%%%%*G^                              ",
"                     EF%%%%%%%%%%%%%%%%%%%*G^                              ",
"                     EF%%%%%%%%%%%%%%%%%%%*G^                              ",
"                     EF%%%%%%%%%%%%%%%%%%%*G^                              ",
"                     EF%%%%%%%%%%%%%%%%%%%*G^                              ",
"                     EF%%%%%%%%%%%%%%%%%%%*G^                              ",
"                     EF%%%%%%%%%%%%%%%%%%%*G^                              ",
"                     EF%%%%%%%%%%%%%%%%%%%*G^                              ",
"                     EF%%%%%%%%%%%%%%%%%%%*G^                              ",
"                     EF%%%%%%%%%%%%%%%%%%%*G^                              ",
"                     EF%%%%%%%%%%%%%%%%%%%*G^                              ",
"                     EF%%%%%%%%%%%%%%%%%%%*G^                              ",
"                     EF%%%%%%%%%%%%%%%%%%%*G^                              ",
"                     EF%%%%%%%%%%%%%%%%%%%*G^                              ",
"                     EF%%%%%%%%%%%%%%%%%%%*G^                              ",
"                     EF%%%%%%%%%%%%%%%%%%%*G^                              ",
"                     EF%%%%%%%%%%%%%%%%%%%*G^                              ",
"                     EF%%%%%%%%%%%%%%%%%%%*G^                              ",
"                     EF%%%%%%%%%%%%%%%%%%%*G^                              ",
"                     EF%%%%%%%%%%%%%%%%%%%*G^                              ",
"                     EF%%%%%%%%%%%%%%%%%%%*G^                              ",
"                     EF%%%%%%%%%%%%%%%%%%%*G^                              ",
"                     EF%%%%%%%%%%%%%%%%%%%*G^                              ",
"                     EF%%%%%%%%%%%%%%%%%%%*G^                              ",
"                     EF%%%%%%%%%%%%%%%%%%%*G^                              ",
"                     EF%%%%%%%%%%%%%%%%%%%*G^                              ",
"                     sHIIIIIIIIIIIIIIIIIIIJE^                              "};
