/* XPM */
static char * char8_xpm[] = {
"20 20 51 1",
" 	c None",
".	c #696969",
"+	c #E5E5E5",
"@	c #E4E4E4",
"#	c #757575",
"$	c #747474",
"%	c #FFFFFF",
"&	c #828282",
"*	c #808080",
"=	c #F9F9F9",
"-	c #767676",
";	c #EAEAEA",
">	c #FDFDFD",
",	c #FEFEFE",
"'	c #D7D7D7",
")	c #C2C2C2",
"!	c #E9E9E9",
"~	c #EBEBEB",
"{	c #D4D4D4",
"]	c #FAFAFA",
"^	c #DBDBDB",
"/	c #D9D9D9",
"(	c #B7B7B7",
"_	c #C6C6C6",
":	c #DFDFDF",
"<	c #ABABAB",
"[	c #B8B8B8",
"}	c #DEDEDE",
"|	c #DADADA",
"1	c #969696",
"2	c #A8A8A8",
"3	c #B6B6B6",
"4	c #AAAAAA",
"5	c #C8C8C8",
"6	c #CFCFCF",
"7	c #D8D8D8",
"8	c #C4C4C4",
"9	c #B2B2B2",
"0	c #EEEEEE",
"a	c #999999",
"b	c #949494",
"c	c #E0E0E0",
"d	c #EFEFEF",
"e	c #6C6C6C",
"f	c #E2E2E2",
"g	c #F6F6F6",
"h	c #8B8B8B",
"i	c #F4F4F4",
"j	c #7D7D7D",
"k	c #F5F5F5",
"l	c #797979",
"  .+@@@@@@@@@@#     ",
"  $%%%%%%%%%%%&     ",
"  *%%=++++++++-     ",
";>,%%'        )!+   ",
"~%%%%'        {%]   ",
"~%%%%^        {%]   ",
"~%%%%,]]{     {%]   ",
"~%%%%%%%/     {%]   ",
"(__%%%%%:    <[}|   ",
"   ,%%%%%%%%%%1     ",
"   ,%%%%%%%%%%1     ",
"234566667%%%%%83333<",
"~%~     9%%%%%%%%%%0",
"~%~     9%%%%%%%%%%0",
"~%~      aaaabc%%%%0",
"~%~           {%%%%0",
"~%~           {%%%%d",
"  e7ffffffffffg%%h  ",
"   i%%%%%%%%%%%%%j  ",
"   ~kkkkkkkkkkkkgl  "};
