/* XPM */
static char * char8_xpm[] = {
"75 75 96 2",
"  	c None",
". 	c #030303",
"+ 	c #4F4F4F",
"@ 	c #7A7A7A",
"# 	c #797979",
"$ 	c #414141",
"% 	c #010101",
"& 	c #040404",
"* 	c #787878",
"= 	c #FEFEFE",
"- 	c #FFFFFF",
"; 	c #FAFAFA",
"> 	c #606060",
", 	c #1B1B1B",
"' 	c #232323",
") 	c #272727",
"! 	c #8B8B8B",
"~ 	c #E0E0E0",
"{ 	c #B1B1B1",
"] 	c #AFAFAF",
"^ 	c #ADADAD",
"/ 	c #4E4E4E",
"( 	c #A2A2A2",
"_ 	c #F4F4F4",
": 	c #FBFBFB",
"< 	c #949494",
"[ 	c #0D0D0D",
"} 	c #060606",
"| 	c #070707",
"1 	c #424242",
"2 	c #5D5D5D",
"3 	c #1F1F1F",
"4 	c #A6A6A6",
"5 	c #919191",
"6 	c #080808",
"7 	c #7F7F7F",
"8 	c #E5E5E5",
"9 	c #393939",
"0 	c #979797",
"a 	c #151515",
"b 	c #0E0E0E",
"c 	c #ECECEC",
"d 	c #CCCCCC",
"e 	c #CACACA",
"f 	c #C8C8C8",
"g 	c #545454",
"h 	c #5C5C5C",
"i 	c #D4D4D4",
"j 	c #DEDEDE",
"k 	c #0C0C0C",
"l 	c #101010",
"m 	c #404040",
"n 	c #F9F9F9",
"o 	c #FCFCFC",
"p 	c #888888",
"q 	c #434343",
"r 	c #454545",
"s 	c #909090",
"t 	c #777777",
"u 	c #767676",
"v 	c #717171",
"w 	c #242424",
"x 	c #333333",
"y 	c #F8F8F8",
"z 	c #020202",
"A 	c #343434",
"B 	c #F3F3F3",
"C 	c #959595",
"D 	c #7C7C7C",
"E 	c #A4A4A4",
"F 	c #A7A7A7",
"G 	c #484848",
"H 	c #282828",
"I 	c #363636",
"J 	c #BFBFBF",
"K 	c #DDDDDD",
"L 	c #A5A5A5",
"M 	c #C9C9C9",
"N 	c #111111",
"O 	c #B3B3B3",
"P 	c #B9B9B9",
"Q 	c #7E7E7E",
"R 	c #9B9B9B",
"S 	c #9C9C9C",
"T 	c #D0D0D0",
"U 	c #323232",
"V 	c #3F3F3F",
"W 	c #525252",
"X 	c #818181",
"Y 	c #464646",
"Z 	c #BEBEBE",
"` 	c #898989",
" .	c #090909",
"..	c #1D1D1D",
"+.	c #AEAEAE",
"@.	c #D9D9D9",
"                  . + @ @ @ @ @ @ @ @ @ @ @ @ @ @ @ @ @ @ @ @ @ @ @ @ @ @ @ @ @ @ @ @ @ @ @ @ @ @ @ @ @ # $ %                                         ",
"                  & * = - - - - - - - - - - - - - - - - - - - - - - - - - - - - - - - - - - - - - - - - ; > %                                         ",
"                  & * = - - - - - - - - - - - - - - - - - - - - - - - - - - - - - - - - - - - - - - - - ; > %                                         ",
"                  & * = - - - - - - - - - - - - - - - - - - - - - - - - - - - - - - - - - - - - - - - - ; > %                                         ",
"                  & * = - - - - - - - - - - - - - - - - - - - - - - - - - - - - - - - - - - - - - - - - ; > %                                         ",
"                  & * = - - - - - - - - - - - - - - - - - - - - - - - - - - - - - - - - - - - - - - - - ; > %                                         ",
"                  & * = - - - - - - - - - - - - - - - - - - - - - - - - - - - - - - - - - - - - - - - - ; > %                                         ",
"                  & * = - - - - - - - - - - - - - - - - - - - - - - - - - - - - - - - - - - - - - - - - ; > %                                         ",
"                  & * = - - - - - - - - - - - - - - - - - - - - - - - - - - - - - - - - - - - - - - - - ; > %                                         ",
"                  & * = - - - - - - - - - - - - - - - - - - - - - - - - - - - - - - - - - - - - - - - - ; > %                                         ",
", ' ' ' ' ' ' ' ' ) ! = - - - - - - - - - ~ { ] ] ] ] ] ] ] ] ] ] ] ] ] ] ] ] ] ] ] ] ] ] ] ] ] ] ] ] ] ^ / %                                         ",
"( _ _ _ _ _ _ _ _ _ : - - - - - - - - - - < [ } } } } } } } } } } } } } } } } } } } } } } } } } } } } } | 1 > > > > > > > > > 2 3                     ",
"4 - - - - - - - - - - - - - - - - - - - - 5 6                                                           . 7 = - - - - - - - - 8 9                     ",
"4 - - - - - - - - - - - - - - - - - - - - 5 6                                                           . 7 = - - - - - - - - 8 9                     ",
"4 - - - - - - - - - - - - - - - - - - - - 5 6                                                           . 7 = - - - - - - - - 8 9                     ",
"4 - - - - - - - - - - - - - - - - - - - - 5 6                                                           . 7 = - - - - - - - - 8 9                     ",
"4 - - - - - - - - - - - - - - - - - - - - 5 6                                                           . 7 = - - - - - - - - 8 9                     ",
"4 - - - - - - - - - - - - - - - - - - - - 5 6                                                           . 7 = - - - - - - - - 8 9                     ",
"4 - - - - - - - - - - - - - - - - - - - - 5 6                                                           . 7 = - - - - - - - - 8 9                     ",
"4 - - - - - - - - - - - - - - - - - - - - 5 6                                                           . 7 = - - - - - - - - 8 9                     ",
"4 - - - - - - - - - - - - - - - - - - - - 5 6                                                           . 7 = - - - - - - - - 8 9                     ",
"4 - - - - - - - - - - - - - - - - - - - - 0 a b b b b b b b b [ |                                       . 7 = - - - - - - - - 8 9                     ",
"4 - - - - - - - - - - - - - - - - - - - - c d e e e e e e e e f g                                       . 7 = - - - - - - - - 8 9                     ",
"4 - - - - - - - - - - - - - - - - - - - - - - - - - - - - - - ; h                                       . 7 = - - - - - - - - 8 9                     ",
"4 - - - - - - - - - - - - - - - - - - - - - - - - - - - - - - ; h                                       . 7 = - - - - - - - - 8 9                     ",
"4 - - - - - - - - - - - - - - - - - - - - - - - - - - - - - - ; h                                       . 7 = - - - - - - - - 8 9                     ",
"4 - - - - - - - - - - - - - - - - - - - - - - - - - - - - - - ; h                                       . 7 = - - - - - - - - 8 9                     ",
"4 - - - - - - - - - - - - - - - - - - - - - - - - - - - - - - ; h                                       . 7 = - - - - - - - - 8 9                     ",
"4 - - - - - - - - - - - - - - - - - - - - - - - - - - - - - - ; h                                       . 7 = - - - - - - - - 8 9                     ",
"4 - - - - - - - - - - - - - - - - - - - - - - - - - - - - - - ; h                                       . 7 = - - - - - - - - 8 9                     ",
"4 - - - - - - - - - - - - - - - - - - - - - - - - - - - - - - ; h                                       . 7 = - - - - - - - - 8 9                     ",
"0 i i i i i i i i i j - - - - - - - - - - - - - - - - - - - - ; h                                       . 7 = - - - - - - - - 8 9                     ",
"k l l l l l l l l l m n - - - - - - - - - - - - - - - - - - - o p q q q q q q q q q q q q q q q q q q q r s t u u u u u u u u v w                     ",
"                    x y - - - - - - - - - - - - - - - - - - - - - - - - - - - - - - - - - - - - - - - - - < .                                         ",
"                    x y - - - - - - - - - - - - - - - - - - - - - - - - - - - - - - - - - - - - - - - - - < .                                         ",
"                    x y - - - - - - - - - - - - - - - - - - - - - - - - - - - - - - - - - - - - - - - - - < .                                         ",
"                    x y - - - - - - - - - - - - - - - - - - - - - - - - - - - - - - - - - - - - - - - - - < .                                         ",
"                    x y - - - - - - - - - - - - - - - - - - - - - - - - - - - - - - - - - - - - - - - - - < .                                         ",
"                    x y - - - - - - - - - - - - - - - - - - - - - - - - - - - - - - - - - - - - - - - - - < .                                         ",
"                    x y - - - - - - - - - - - - - - - - - - - - - - - - - - - - - - - - - - - - - - - - - < .                                         ",
"                    x y - - - - - - - - - - - - - - - - - - - - - - - - - - - - - - - - - - - - - - - - - < .                                         ",
"                    x y - - - - - - - - - - - - - - - - - - - - - - - - - - - - - - - - - - - - - - - - - < .                                         ",
"% z z z z z z z z z A B y y y y y y y y y y y y y y y y y y y n = - - - - - - - - - - - - - - - - - - - - C & z z z z z z z z z z z z z z z z z z z % ",
"D E E E E E E E E E F G H H H H H H H H H H H H H H H H H H H I J - - - - - - - - - - - - - - - - - - - - K L E E E E E E E E E E E E E E E E E E E p ",
"4 - - - - - - - - - M )                                       N O - - - - - - - - - - - - - - - - - - - - - - - - - - - - - - - - - - - - - - - - - P ",
"4 - - - - - - - - - M )                                       N O - - - - - - - - - - - - - - - - - - - - - - - - - - - - - - - - - - - - - - - - - P ",
"4 - - - - - - - - - M )                                       N O - - - - - - - - - - - - - - - - - - - - - - - - - - - - - - - - - - - - - - - - - P ",
"4 - - - - - - - - - M )                                       N O - - - - - - - - - - - - - - - - - - - - - - - - - - - - - - - - - - - - - - - - - P ",
"4 - - - - - - - - - M )                                       N O - - - - - - - - - - - - - - - - - - - - - - - - - - - - - - - - - - - - - - - - - P ",
"4 - - - - - - - - - M )                                       N O - - - - - - - - - - - - - - - - - - - - - - - - - - - - - - - - - - - - - - - - - P ",
"4 - - - - - - - - - M )                                       N O - - - - - - - - - - - - - - - - - - - - - - - - - - - - - - - - - - - - - - - - - P ",
"4 - - - - - - - - - M )                                       N O - - - - - - - - - - - - - - - - - - - - - - - - - - - - - - - - - - - - - - - - - P ",
"4 - - - - - - - - - M )                                       N O - - - - - - - - - - - - - - - - - - - - - - - - - - - - - - - - - - - - - - - - - P ",
"4 - - - - - - - - - M )                                       [ Q R R R R R R R R R R R R R R R R R R R S T - - - - - - - - - - - - - - - - - - - - P ",
"4 - - - - - - - - - M )                                         % % % % % % % % % % % % % % % % % % % % & 7 = - - - - - - - - - - - - - - - - - - - P ",
"4 - - - - - - - - - M )                                                                                 . 7 = - - - - - - - - - - - - - - - - - - - P ",
"4 - - - - - - - - - M )                                                                                 . 7 = - - - - - - - - - - - - - - - - - - - P ",
"4 - - - - - - - - - M )                                                                                 . 7 = - - - - - - - - - - - - - - - - - - - P ",
"4 - - - - - - - - - M )                                                                                 . 7 = - - - - - - - - - - - - - - - - - - - P ",
"4 - - - - - - - - - M )                                                                                 . 7 = - - - - - - - - - - - - - - - - - - - P ",
"4 - - - - - - - - - M )                                                                                 . 7 = - - - - - - - - - - - - - - - - - - - P ",
"4 - - - - - - - - - M )                                                                                 . 7 = - - - - - - - - - - - - - - - - - - - P ",
"4 - - - - - - - - - M )                                                                                 . 7 = - - - - - - - - - - - - - - - - - - - P ",
"L - - - - - - - - - M )                                                                                 . 7 = - - - - - - - - - - - - - - - - - - - P ",
"U V V V V V V V V V W X D D D D D D D D D D D D D D D D D D D D D D D D D D D D D D D D D D D D D D D D Q J - - - - - - - - - - F Y V V V V V V V V I ",
"                    3 Z - - - - - - - - - - - - - - - - - - - - - - - - - - - - - - - - - - - - - - - - - - - - - - - - - - - - `  .                  ",
"                    3 Z - - - - - - - - - - - - - - - - - - - - - - - - - - - - - - - - - - - - - - - - - - - - - - - - - - - - `  .                  ",
"                    3 Z - - - - - - - - - - - - - - - - - - - - - - - - - - - - - - - - - - - - - - - - - - - - - - - - - - - - `  .                  ",
"                    3 Z - - - - - - - - - - - - - - - - - - - - - - - - - - - - - - - - - - - - - - - - - - - - - - - - - - - - `  .                  ",
"                    3 Z - - - - - - - - - - - - - - - - - - - - - - - - - - - - - - - - - - - - - - - - - - - - - - - - - - - - `  .                  ",
"                    3 Z - - - - - - - - - - - - - - - - - - - - - - - - - - - - - - - - - - - - - - - - - - - - - - - - - - - - `  .                  ",
"                    3 Z - - - - - - - - - - - - - - - - - - - - - - - - - - - - - - - - - - - - - - - - - - - - - - - - - - - - `  .                  ",
"                    3 Z - - - - - - - - - - - - - - - - - - - - - - - - - - - - - - - - - - - - - - - - - - - - - - - - - - - - `  .                  ",
"                    3 Z - - - - - - - - - - - - - - - - - - - - - - - - - - - - - - - - - - - - - - - - - - - - - - - - - - - - `  .                  ",
"                    ..+.@.@.@.@.@.@.@.@.@.@.@.@.@.@.@.@.@.@.@.@.@.@.@.@.@.@.@.@.@.@.@.@.@.@.@.@.@.@.@.@.@.@.@.@.@.@.@.@.@.@.@.@.7 6                   "};
