/* XPM */
static char * char9_xpm[] = {
"20 20 40 1",
" 	c None",
".	c #E3E3E3",
"+	c #E4E4E4",
"@	c #DFDFDF",
"#	c #FDFDFD",
"$	c #FFFFFF",
"%	c #F9F9F9",
"&	c #858585",
"*	c #FEFEFE",
"=	c #F8F8F8",
"-	c #767676",
";	c #E0E0E0",
">	c #DBDBDB",
",	c #D6D6D6",
"'	c #E5E5E5",
")	c #E1E1E1",
"!	c #A7A7A7",
"~	c #BDBDBD",
"{	c #B9B9B9",
"]	c #F7F7F7",
"^	c #707070",
"/	c #F0F0F0",
"(	c #FCFCFC",
"_	c #BABABA",
":	c #C1C1C1",
"<	c #C0C0C0",
"[	c #ECECEC",
"}	c #D1D1D1",
"|	c #E6E6E6",
"1	c #AAAAAA",
"2	c #DCDCDC",
"3	c #DADADA",
"4	c #9E9E9E",
"5	c #C6C6C6",
"6	c #717171",
"7	c #D8D8D8",
"8	c #F5F5F5",
"9	c #A8A8A8",
"0	c #D7D7D7",
"a	c #979797",
"   .++++++++++++@   ",
"   #$$$$$$$$$$$$%   ",
"  &*$%........=$%-  ",
";$$$$>        ,$$$$'",
")$$$$>        ,$$$$'",
")$$$$>        ,$$$$'",
")$$$$>        ,$$$$'",
")$$$$>        ,$$$$'",
"!~{]$;^      ^>$$$$'",
"   /$*((((((((*$$$$'",
"   /$$$$$$$$$$$$$$$'",
"   _:::::::::<[$$$$'",
"              }$$$$'",
"              }$$$$|",
"           123/$$4  ",
"           5$$$$$6  ",
"           5$$*#*6  ",
"   7'''''''8$$9     ",
"   /$$$$$$$$$$9     ",
"   0++++++++++a     "};
