/* XPM */
static char * char9_xpm[] = {
"75 75 91 1",
" 	c None",
".	c #3A3A3A",
"+	c #797979",
"@	c #7A7A7A",
"#	c #757575",
"$	c #1C1C1C",
"%	c #555555",
"&	c #F4F4F4",
"*	c #FFFFFF",
"=	c #DBDBDB",
"-	c #262626",
";	c #151515",
">	c #272727",
",	c #6F6F6F",
"'	c #F7F7F7",
")	c #E4E4E4",
"!	c #ABABAB",
"~	c #A5A5A5",
"{	c #A7A7A7",
"]	c #D9D9D9",
"^	c #E1E1E1",
"/	c #484848",
"(	c #1B1B1B",
"_	c #666666",
":	c #FAFAFA",
"<	c #FCFCFC",
"[	c #AAAAAA",
"}	c #141414",
"|	c #040404",
"1	c #090909",
"2	c #8C8C8C",
"3	c #FEFEFE",
"4	c #FBFBFB",
"5	c #F9F9F9",
"6	c #818181",
"7	c #676767",
"8	c #A8A8A8",
"9	c #101010",
"0	c #050505",
"a	c #8A8A8A",
"b	c #828282",
"c	c #5A5A5A",
"d	c #BABABA",
"e	c #BCBCBC",
"f	c #C0C0C0",
"g	c #EAEAEA",
"h	c #080808",
"i	c #A1A1A1",
"j	c #161616",
"k	c #070707",
"l	c #0B0B0B",
"m	c #8D8D8D",
"n	c #0D0D0D",
"o	c #9E9E9E",
"p	c #E9E9E9",
"q	c #B6B6B6",
"r	c #B1B1B1",
"s	c #B3B3B3",
"t	c #DFDFDF",
"u	c #656565",
"v	c #858585",
"w	c #878787",
"x	c #B8B8B8",
"y	c #010101",
"z	c #030303",
"A	c #252525",
"B	c #464646",
"C	c #909090",
"D	c #B0B0B0",
"E	c #6D6D6D",
"F	c #4B4B4B",
"G	c #020202",
"H	c #5C5C5C",
"I	c #727272",
"J	c #060606",
"K	c #606060",
"L	c #F6F6F6",
"M	c #707070",
"N	c #7E7E7E",
"O	c #AEAEAE",
"P	c #AFAFAF",
"Q	c #CECECE",
"R	c #C5C5C5",
"S	c #3D3D3D",
"T	c #222222",
"U	c #BBBBBB",
"V	c #1F1F1F",
"W	c #5F5F5F",
"X	c #777777",
"Y	c #767676",
"Z	c #6A6A6A",
"          .+@@@@@@@@@@@@@@@@@@@@@@@@@@@@@@@@@@@@@@@@@@@@@@@@@@@#$          ",
"          %&***************************************************=-          ",
"          %&***************************************************=-          ",
"          %&***************************************************=-          ",
"          %&***************************************************=-          ",
"          %&***************************************************=-          ",
"          %&***************************************************=-          ",
"          %&***************************************************=-          ",
"          %&***************************************************=-          ",
"          %&***************************************************=-          ",
";>>>>>>>>>,'*********)!~~~~~~~~~~~~~~~~~~~~~~~~~~~~~{]*********^/>>>>>>>>>(",
"_&::::::::<**********[}|||||||||||||||||||||||||||||123*********4::::::::56",
"7:*******************89                             0a3******************3b",
"7:*******************89                             0a3******************3b",
"7:*******************89                             0a3******************3b",
"7:*******************89                             0a3******************3b",
"7:*******************89                             0a3******************3b",
"7:*******************89                             0a3******************3b",
"7:*******************89                             0a3******************3b",
"7:*******************89                             0a3******************3b",
"7:*******************89                             0a3******************3b",
"7:*******************89                             0a3******************3b",
"7:*******************89                             0a3******************3b",
"7:*******************89                             0a3******************3b",
"7:*******************89                             0a3******************3b",
"7:*******************89                             0a3******************3b",
"7:*******************89                             0a3******************3b",
"7:*******************89                             0a3******************3b",
"7:*******************89                             0a3******************3b",
"7:*******************89                             0a3******************3b",
"7:*******************89                             0a3******************3b",
"cdeeeeeeeefg*********89                             0a3******************3b",
"|hhhhhhhhh;i*********!jkkkkkkkkkkkkkkkkkkkkkkkkkkkkklm3******************3b",
"          no*********pqrrrrrrrrrrrrrrrrrrrrrrrrrrrrrst*******************3b",
"          no*************************************************************3b",
"          no*************************************************************3b",
"          no*************************************************************3b",
"          no*************************************************************3b",
"          no*************************************************************3b",
"          no*************************************************************3b",
"          no*************************************************************3b",
"          no*************************************************************3b",
"          no*************************************************************3b",
"          1uvvvvvvvvvvvvvvvvvvvvvvvvvvvvvvvvvvvvvvvvwx*******************3b",
"            yyyyyyyyyyyyyyyyyyyyyyyyyyyyyyyyyyyyyyyyz_3******************3b",
"                                                    z_3******************3b",
"                                                    z_3******************3b",
"                                                    z_3******************3b",
"                                                    z_3******************3b",
"                                                    z_3******************3b",
"                                                    z_3******************3b",
"                                                    z_3******************3b",
"                                                    z_3******************3b",
"                                         yABBBBBBBBB/C3*********D,EEEEEEEEF",
"                                         GH*********************I|         ",
"                                         GH*********************I|         ",
"                                         GH*********************I|         ",
"                                         GH*********************I|         ",
"                                         GH*********************I|         ",
"                                         GH*********************I|         ",
"                                         GH*********************I|         ",
"                                         GH*********************I|         ",
"                                         GH*********************I|         ",
"           |JJJJJJJJJJJJJJJJJJJJJJJJJJJJJhK**********3L&&&&&&&&&Mz         ",
"          lNOOOOOOOOOOOOOOOOOOOOOOOOOOOOOPQ**********RSTTTTTTTTT}y         ",
"          no*****************************************UV                    ",
"          no*****************************************UV                    ",
"          no*****************************************UV                    ",
"          no*****************************************UV                    ",
"          no*****************************************UV                    ",
"          no*****************************************UV                    ",
"          no*****************************************UV                    ",
"          no*****************************************UV                    ",
"          no*****************************************UV                    ",
"          1WXYYYYYYYYYYYYYYYYYYYYYYYYYYYYYYYYYYYYYYYYZ;                    "};
