/* XPM */
static char * exit1_xpm[] = {
"130 34 63 1",
" 	c None",
".	c #000000",
"+	c #898989",
"@	c #757575",
"#	c #F0F0F0",
"$	c #F5F5F5",
"%	c #F7F7F7",
"&	c #E0E0E0",
"*	c #C4C4C4",
"=	c #8C8C8C",
"-	c #0F0F0F",
";	c #797979",
">	c #F6F6F6",
",	c #E1E1E1",
"'	c #C5C5C5",
")	c #010101",
"!	c #F2F2F2",
"~	c #727272",
"{	c #383838",
"]	c #6A6A6A",
"^	c #E8E8E8",
"/	c #989898",
"(	c #CECECE",
"_	c #FCFCFC",
":	c #1B1B1B",
"<	c #303030",
"[	c #040404",
"}	c #F4F4F4",
"|	c #1C1C1C",
"1	c #4F4F4F",
"2	c #4E4E4E",
"3	c #A3A3A3",
"4	c #5A5A5A",
"5	c #555555",
"6	c #060606",
"7	c #535353",
"8	c #F8F8F8",
"9	c #262626",
"0	c #F9F9F9",
"a	c #EEEEEE",
"b	c #FBFBFB",
"c	c #252525",
"d	c #161616",
"e	c #0A0A0A",
"f	c #DCDCDC",
"g	c #DFDFDF",
"h	c #D0D0D0",
"i	c #878787",
"j	c #A5A5A5",
"k	c #A4A4A4",
"l	c #C1C1C1",
"m	c #FAFAFA",
"n	c #414141",
"o	c #949494",
"p	c #EDEDED",
"q	c #7A7A7A",
"r	c #BCBCBC",
"s	c #BEBEBE",
"t	c #D2D2D2",
"u	c #CCCCCC",
"v	c #F1F1F1",
"w	c #D5D5D5",
"x	c #E9E9E9",
"                                                                                                                                  ",
"                                                                                                                                  ",
"                                                                                                                                  ",
"                                                                                                                                  ",
"   .............................+  ........@           #........$    %.........................& .........................*       ",
"   .............................=  -.......;           #........>    %........................., .........................'       ",
"   .............................=  -.......;           #........>    %........................., .........................'       ",
"   ........)....................+  -.......;           !........>    %........................., .........................*       ",
"   .........                       -...........~   {............>             ]........^                 /........(               ",
"   .........                       -...........~   {............>             ]........^                 /........(               ",
"   .........                       -...........~   {............>             ]........^                 /........(               ",
"   .........                       ............~   {............>             ]........^                 /........(               ",
"   .........                       ____:.......-<<<[........}___              ]........^                 /........(               ",
"   .........                           |....................%                 ]........^                 /........(               ",
"   .........                           |....................%                 ]........^                 /........(               ",
"   .........                           |....................%                 ]........^                 /........(               ",
"   .........1222222222223              45556............75558                 ]........^                 /........(               ",
"   ...................../                  9............0                     ]........^                 /........(               ",
"   ...................../                  9............0                     ]........^                 /........(               ",
"   ...................../                  9............0                     ]........^                 /........(               ",
"   .........#aaaaaaaaaaa}              bbbbc............$bbb                  ]........^                 /........(               ",
"   .........                           d....................%                 ]........^                 /........(               ",
"   .........                           |....................%                 ]........^                 /........(               ",
"   .........                           |....................%                 ]........^                 /........(               ",
"   .........                           |....................%                 ]........^                 /........(               ",
"   .........                       ====e........fggh........i===8             ]........^                 /........(               ",
"   .........                       -............b  a............>             ]........^                 /........(               ",
"   .........                       -............b  a............>             ]........^                 /........(               ",
"   .........                       -............b  a............>             ]........^                 /........(               ",
"   .........jkkkkkkkkkkkkkkkkkkkl  -............b  a............>    mkkkkkkkkn........okkkkkkkp         /........(               ",
"   .............................=  -.......q           !........>    %.........................,         /........(               ",
"   .............................=  -.......;           #........>    %.........................,         /........(               ",
"   .............................=  -.......;           #........>    %.........................,         /........(               ",
"   rsssssssssssssssssssssssssssst  ssssssssu           8ssssssssb    bsssssssssssssssssssssssssv         wssssssssx               "};
