/* XPM */
static char * exit2_xpm[] = {
"130 34 67 1",
" 	c None",
".	c #FFE300",
"+	c #FFE400",
"@	c #FFEB89",
"#	c #FFE975",
"$	c #FFFCF0",
"%	c #FFFDF5",
"&	c #FFFDF7",
"*	c #FFF9E0",
"=	c #FFF3C4",
"-	c #FFEB8C",
";	c #FFE40F",
">	c #FFE979",
",	c #FFFDF6",
"'	c #FFF9E1",
")	c #FFF4C5",
"!	c #FFE401",
"~	c #FFEA79",
"{	c #FFFCF2",
"]	c #FFE972",
"^	c #FFE538",
"/	c #FFE86A",
"(	c #FFFAE8",
"_	c #FFED98",
":	c #FFF5CE",
"<	c #FFFEFC",
"[	c #FFE41B",
"}	c #FFE530",
"|	c #FFE404",
"1	c #FFFDF4",
"2	c #FFE41C",
"3	c #FFE64F",
"4	c #FFE64E",
"5	c #FFEEA3",
"6	c #FFE75A",
"7	c #FFE755",
"8	c #FFE406",
"9	c #FFE653",
"0	c #FFFDF8",
"a	c #FFE526",
"b	c #FFFEF9",
"c	c #FFFBEE",
"d	c #FFFCF4",
"e	c #FFFEFB",
"f	c #FFE525",
"g	c #FFE416",
"h	c #FFEC8C",
"i	c #FFE40A",
"j	c #FFF8DC",
"k	c #FFF8DF",
"l	c #FFF6D0",
"m	c #FFEB87",
"n	c #FFEFA5",
"o	c #FFEEA4",
"p	c #FFF3C1",
"q	c #FFFEFA",
"r	c #FFE641",
"s	c #FFEC94",
"t	c #FFFBED",
"u	c #FFEA7A",
"v	c #FFF2BC",
"w	c #FFF2BE",
"x	c #FFF6D2",
"y	c #FFF5CC",
"z	c #FFFCF1",
"A	c #FFF6D5",
"B	c #FFFAE9",
"                                                                                                                                  ",
"                                                                                                                                  ",
"                                                                                                                                  ",
"                                                                                                                                  ",
"   .++++++++++++++++++++++++++++@  ++++++++#           $++++++++%    &+++++++++++++++++++++++++* .++++++++++++++++++++++++=       ",
"   .++++++++++++++++++++++++++++-  ;+++++++>           $++++++++,    &+++++++++++++++++++++++++' +++++++++++++++++++++++++)       ",
"   .++++++++++++++++++++++++++++-  ;+++++++>           $++++++++,    &+++++++++++++++++++++++++' +++++++++++++++++++++++++)       ",
"   .+++++++!++++++++++++++++++++@  ;+++++++~           {++++++++,    &+++++++++++++++++++++++++' .++++++++++++++++++++++++=       ",
"   .+++++++.                       ;+++++++++++]   ^++++++++++++,             /++++++++(                 _++++++++:               ",
"   .+++++++.                       ;+++++++++++]   ^++++++++++++,             /++++++++(                 _++++++++:               ",
"   .+++++++.                       ;+++++++++++]   ^++++++++++++,             /++++++++(                 _++++++++:               ",
"   .+++++++.                       ++++++++++++]   ^++++++++++++,             /++++++++(                 _++++++++:               ",
"   .+++++++.                       <<<<[+++++++;}}}|++++++++1<<<              /++++++++(                 _++++++++:               ",
"   .+++++++.                           2++++++++++++++++++++&                 /++++++++(                 _++++++++:               ",
"   .+++++++.                           2++++++++++++++++++++&                 /++++++++(                 _++++++++:               ",
"   .+++++++.                           2++++++++++++++++++++&                 /++++++++(                 _++++++++:               ",
"   .++++++++3444444444445              67778++++++++++++97770                 /++++++++(                 _++++++++:               ",
"   .++++++++++++++++++++_                  a++++++++++++b                     /++++++++(                 _++++++++:               ",
"   .++++++++++++++++++++_                  a++++++++++++b                     /++++++++(                 _++++++++:               ",
"   .++++++++++++++++++++_                  a++++++++++++b                     /++++++++(                 _++++++++:               ",
"   .++++++++$cccccccccccd              eeeef++++++++++++%eee                  /++++++++(                 _++++++++:               ",
"   .+++++++.                           g++++++++++++++++++++&                 /++++++++(                 _++++++++:               ",
"   .+++++++.                           2++++++++++++++++++++&                 /++++++++(                 _++++++++:               ",
"   .+++++++.                           2++++++++++++++++++++&                 /++++++++(                 _++++++++:               ",
"   .+++++++.                           2++++++++++++++++++++&                 /++++++++(                 _++++++++:               ",
"   .+++++++.                       h---i++++++++jkkl++++++++m---0             /++++++++(                 _++++++++:               ",
"   .+++++++.                       ;++++++++++++e  c++++++++++++,             /++++++++(                 _++++++++:               ",
"   .+++++++.                       ;++++++++++++e  c++++++++++++,             /++++++++(                 _++++++++:               ",
"   .+++++++.                       ;++++++++++++e  c++++++++++++,             /++++++++(                 _++++++++:               ",
"   .++++++++nooooooooooooooooooop  ;+++++++++++.e  c++++++++++++,    qoooooooor++++++++sooooooot         _++++++++:               ",
"   .++++++++++++++++++++++++++++-  ;+++++++u           {++++++++,    &+++++++++++++++++++++++++'         _++++++++:               ",
"   .++++++++++++++++++++++++++++-  ;+++++++>           $++++++++,    &+++++++++++++++++++++++++'         _++++++++:               ",
"   .++++++++++++++++++++++++++++-  ;+++++++>           $++++++++,    &+++++++++++++++++++++++++'         _++++++++:               ",
"   vwwwwwwwwwwwwwwwwwwwwwwwwwwwwx  wwwwwwwwy           0wwwwwwwwe    ewwwwwwwwwwwwwwwwwwwwwwwwwz         AwwwwwwwwB               "};
