/* XPM */
static char * instructions2_xpm[] = {
"386 36 15 1",
" 	c None",
".	c #FFFEFD",
"+	c #FFF3BF",
"@	c #FFF2BC",
"#	c #FFF9E1",
"$	c #FFFEFA",
"%	c #FFE53A",
"&	c #FFE400",
"*	c #FFEB89",
"=	c #FFE538",
"-	c #FFFDF6",
";	c #FFE528",
">	c #FFF1B8",
",	c #FFE406",
"'	c #FFE651",
"                                                                                                                                                                                                                                                                                                                                                                                                  ",
"                                                                                                                                                                                                                                                                                                                                                                                                  ",
"                                                                                                                                                                                                                                                                                                                                                                                                  ",
"                                                                                                                                                                                                                                                                                                                                                                                                  ",
"  .+@@@@@@@@@@@@@@@@@@@@@@@@#   #@@@@@@@+.          .+@@@@@@@#      #@@@@@@@@@@@@@@@@#       .+@@@@@@@@@@@@@@@@@@@@@@@@#        #@@@@@@@@@@@@@@@@@@@@@@@@#      #@@@@@@@+.          .+@@@@@@@#          #@@@@@@@@@@@@@@@@#   .+@@@@@@@@@@@@@@@@@@@@@@@@#          .+@@@@@@@@@@@@@@@@@@@@@@@@#       #@@@@@@@@@@@@@@@@@@@@#      #@@@@@@@+.          .+@@@@@@@#      #@@@@@@@@@@@@@@@@#            ",
"  $%&&&&&&&&&&&&&&&&&&&&&&&&@   @&&&&&&&%$          $%&&&&&&&@      @&&&&&&&&&&&&&&&&@       $%&&&&&&&&&&&&&&&&&&&&&&&&@        @&&&&&&&&&&&&&&&&&&&&&&&&@      @&&&&&&&%$          $%&&&&&&&@          @&&&&&&&&&&&&&&&&@   $%&&&&&&&&&&&&&&&&&&&&&&&&@          $%&&&&&&&&&&&&&&&&&&&&&&&&@       @&&&&&&&&&&&&&&&&&&&&@      @&&&&&&&%$          $%&&&&&&&@      @&&&&&&&&&&&&&&&&@            ",
"  $%&&&&&&&&&&&&&&&&&&&&&&&&@   @&&&&&&&%$          $%&&&&&&&@      @&&&&&&&&&&&&&&&&@       $%&&&&&&&&&&&&&&&&&&&&&&&&@        @&&&&&&&&&&&&&&&&&&&&&&&&@      @&&&&&&&%$          $%&&&&&&&@          @&&&&&&&&&&&&&&&&@   $%&&&&&&&&&&&&&&&&&&&&&&&&@          $%&&&&&&&&&&&&&&&&&&&&&&&&@       @&&&&&&&&&&&&&&&&&&&&@      @&&&&&&&%$          $%&&&&&&&@      @&&&&&&&&&&&&&&&&@            ",
"  $%&&&&&&&&&&&&&&&&&&&&&&&&@   @&&&&&&&%$          $%&&&&&&&@      @&&&&&&&&&&&&&&&&@       $%&&&&&&&&&&&&&&&&&&&&&&&&@        @&&&&&&&&&&&&&&&&&&&&&&&&@      @&&&&&&&%$          $%&&&&&&&@          @&&&&&&&&&&&&&&&&@   $%&&&&&&&&&&&&&&&&&&&&&&&&@          $%&&&&&&&&&&&&&&&&&&&&&&&&@       @&&&&&&&&&&&&&&&&&&&&@      @&&&&&&&%$          $%&&&&&&&@      @&&&&&&&&&&&&&&&&@            ",
"  .+@@@@@@@*&&&&&&&&*@@@@@@@#   @&&&&&&&=-$$$       $%&&&&&&&@  #@@@*&&&;>@@@@@@>;&&&>$$$.   .+@@@@@@@*&&&&&&&&*@@@@@@@#        @&&&&&&&;>@@@@@@@@@@>;&&&>$$$.  @&&&&&&&%$          $%&&&&&&&@      #@@@*&&&&*@@@@@@>;&&&>$$$$+@@@@@@@*&&&&&&&&*@@@@@@@#          .+@@@@@@@*&&&&&&&&*@@@@@@@#   #@@@*&&&;>@@@@@@@@@@>;&&&*@@@#  @&&&&&&&=-$$$       $%&&&&&&&@  #@@@*&&&;>@@@@@@>;&&&>$$$.        ",
"           @&&&&&&&&@           @&&&&&&&,=%%'$      $%&&&&&&&@  @&&&&&&&%$      $%&&&;%%%+            @&&&&&&&&@                @&&&&&&&%$          $%&&&;%%%+  @&&&&&&&%$          $%&&&&&&&@      @&&&&&&&&@      $%&&&;%%%+        @&&&&&&&&@                           @&&&&&&&&@           @&&&&&&&%$          $%&&&&&&&@  @&&&&&&&,=%%'$      $%&&&&&&&@  @&&&&&&&%$      $%&&&;%%%+        ",
"           @&&&&&&&&@           @&&&&&&&&&&&%$      $%&&&&&&&@  @&&&&&&&%$      $%&&&&&&&@            @&&&&&&&&@                @&&&&&&&%$          $%&&&&&&&@  @&&&&&&&%$          $%&&&&&&&@      @&&&&&&&&@      $%&&&&&&&@        @&&&&&&&&@                           @&&&&&&&&@           @&&&&&&&%$          $%&&&&&&&@  @&&&&&&&&&&&%$      $%&&&&&&&@  @&&&&&&&%$      $%&&&&&&&@        ",
"           @&&&&&&&&@           @&&&&&&&&&&&%$      $%&&&&&&&@  @&&&&&&&%$      $%&&&&&&&@            @&&&&&&&&@                @&&&&&&&%$          $%&&&&&&&@  @&&&&&&&%$          $%&&&&&&&@      @&&&&&&&&@      $%&&&&&&&@        @&&&&&&&&@                           @&&&&&&&&@           @&&&&&&&%$          $%&&&&&&&@  @&&&&&&&&&&&%$      $%&&&&&&&@  @&&&&&&&%$      $%&&&&&&&@        ",
"           @&&&&&&&&@           @&&&&&&&&&&&=-$$$.  $%&&&&&&&@  @&&&&&&&%$      $'%%%%%%%+            @&&&&&&&&@                @&&&&&&&%$          $%&&&&&&&@  @&&&&&&&%$          $%&&&&&&&@  .$$$>&&&,=%%%+      $'%%%%%%%+        @&&&&&&&&@                           @&&&&&&&&@           @&&&&&&&%$          $%&&&&&&&@  @&&&&&&&&&&&=-$$$.  $%&&&&&&&@  @&&&&&&&%$      $'%%%%%%%+        ",
"           @&&&&&&&&@           @&&&&&&&&&&&,=%%%+  $%&&&&&&&@  @&&&&&&&%$       $$$$$$$$.            @&&&&&&&&@                @&&&&&&&%$          $%&&&&&&&@  @&&&&&&&%$          $%&&&&&&&@  +%%%;&&&=-$$$.       $$$$$$$$.        @&&&&&&&&@                           @&&&&&&&&@           @&&&&&&&%$          $%&&&&&&&@  @&&&&&&&&&&&,=%%%+  $%&&&&&&&@  @&&&&&&&%$       $$$$$$$$.        ",
"           @&&&&&&&&@           @&&&&&&&&&&&&&&&&@  $%&&&&&&&@  @&&&&&&&%$                            @&&&&&&&&@                @&&&&&&&%$          $%&&&&&&&@  @&&&&&&&%$          $%&&&&&&&@  @&&&&&&&%$                            @&&&&&&&&@                           @&&&&&&&&@           @&&&&&&&%$          $%&&&&&&&@  @&&&&&&&&&&&&&&&&@  $%&&&&&&&@  @&&&&&&&%$                        ",
"           @&&&&&&&&@           @&&&&&&&&&&&&&&&&@  $%&&&&&&&@  @&&&&&&&%$                            @&&&&&&&&@                @&&&&&&&%$          $%&&&&&&&@  @&&&&&&&%$          $%&&&&&&&@  @&&&&&&&%$                            @&&&&&&&&@                           @&&&&&&&&@           @&&&&&&&%$          $%&&&&&&&@  @&&&&&&&&&&&&&&&&@  $%&&&&&&&@  @&&&&&&&%$                        ",
"           @&&&&&&&&@           @&&&&&&&&&&&&&&&&@  $%&&&&&&&@  #@@@*&&&=-$$$$$$$$$$$$$$$.            @&&&&&&&&@                @&&&&&&&%$       $$$-=&&&&&&&@  @&&&&&&&%$          $%&&&&&&&@  @&&&&&&&%$                            @&&&&&&&&@                           @&&&&&&&&@           @&&&&&&&%$          $%&&&&&&&@  @&&&&&&&&&&&&&&&&@  $%&&&&&&&@  #@@@*&&&=-$$$$$$$$$$$$$$$.        ",
"           @&&&&&&&&@           @&&&&&&&&&&&&&&&&*@@>;&&&&&&&@      @&&&,=%%%%%%%%%%%%%%%+            @&&&&&&&&@                @&&&&&&&%$      $'%%=,&&&&&&&@  @&&&&&&&%$          $%&&&&&&&@  @&&&&&&&%$                            @&&&&&&&&@                           @&&&&&&&&@           @&&&&&&&%$          $%&&&&&&&@  @&&&&&&&&&&&&&&&&*@@>;&&&&&&&@      @&&&,=%%%%%%%%%%%%%%%+        ",
"           @&&&&&&&&@           @&&&&&&&&&&&&&&&&&&&&&&&&&&&&@      @&&&&&&&&&&&&&&&&&&&&@            @&&&&&&&&@                @&&&&&&&%$      $%&&&&&&&&&&&@  @&&&&&&&%$          $%&&&&&&&@  @&&&&&&&%$                            @&&&&&&&&@                           @&&&&&&&&@           @&&&&&&&%$          $%&&&&&&&@  @&&&&&&&&&&&&&&&&&&&&&&&&&&&&@      @&&&&&&&&&&&&&&&&&&&&@        ",
"           @&&&&&&&&@           @&&&&&&&&&&&&&&&&&&&&&&&&&&&&@      @&&&&&&&&&&&&&&&&&&&&@            @&&&&&&&&@                @&&&&&&&%$      $%&&&&&&&&&&&@  @&&&&&&&%$          $%&&&&&&&@  @&&&&&&&%$                            @&&&&&&&&@                           @&&&&&&&&@           @&&&&&&&%$          $%&&&&&&&@  @&&&&&&&&&&&&&&&&&&&&&&&&&&&&@      @&&&&&&&&&&&&&&&&&&&&@        ",
"           @&&&&&&&&@           @&&&&&&&&&&&&&&&&&&&&&&&&&&&&@      +%%%%%%%%%%%%%%%=,&&&@            @&&&&&&&&@                @&&&&&&&%$      $%&&&&&&&&&&&@  @&&&&&&&%$          $%&&&&&&&@  @&&&&&&&%$                            @&&&&&&&&@                           @&&&&&&&&@           @&&&&&&&%$          $%&&&&&&&@  @&&&&&&&&&&&&&&&&&&&&&&&&&&&&@      +%%%%%%%%%%%%%%%=,&&&@        ",
"           @&&&&&&&&@           @&&&&&&&;>@@>;&&&&&&&&&&&&&&&@      .$$$$$$$$$$$$$$$-=&&&*@@@#        @&&&&&&&&@                @&&&&&&&;>@@@@@@>;&&&*@@@@@@@#  @&&&&&&&%$          $%&&&&&&&@  @&&&&&&&%$                            @&&&&&&&&@                           @&&&&&&&&@           @&&&&&&&%$          $%&&&&&&&@  @&&&&&&&;>@@>;&&&&&&&&&&&&&&&@      .$$$$$$$$$$$$$$$-=&&&*@@@#    ",
"           @&&&&&&&&@           @&&&&&&&%$  $%&&&&&&&&&&&&&&&@                      $%&&&&&&&@        @&&&&&&&&@                @&&&&&&&&&&&&&&&&&&&&@          @&&&&&&&%$          $%&&&&&&&@  @&&&&&&&%$                            @&&&&&&&&@                           @&&&&&&&&@           @&&&&&&&%$          $%&&&&&&&@  @&&&&&&&%$  $%&&&&&&&&&&&&&&&@                      $%&&&&&&&@    ",
"           @&&&&&&&&@           @&&&&&&&%$  $%&&&&&&&&&&&&&&&@                      $%&&&&&&&@        @&&&&&&&&@                @&&&&&&&&&&&&&&&&&&&&@          @&&&&&&&%$          $%&&&&&&&@  @&&&&&&&%$                            @&&&&&&&&@                           @&&&&&&&&@           @&&&&&&&%$          $%&&&&&&&@  @&&&&&&&%$  $%&&&&&&&&&&&&&&&@                      $%&&&&&&&@    ",
"           @&&&&&&&&@           @&&&&&&&%$  $%&&&&&&&&&&&&&&&@                      $%&&&&&&&@        @&&&&&&&&@                @&&&&&&&&&&&&&&&&&&&&@          @&&&&&&&%$          $%&&&&&&&@  @&&&&&&&%$                            @&&&&&&&&@                           @&&&&&&&&@           @&&&&&&&%$          $%&&&&&&&@  @&&&&&&&%$  $%&&&&&&&&&&&&&&&@                      $%&&&&&&&@    ",
"           @&&&&&&&&@           @&&&&&&&%$  .+@@>;&&&&&&&&&&&@  .$$$$$$$$           $%&&&&&&&@        @&&&&&&&&@                @&&&&&&&;>@@>;&&&&&&&*@@@#      @&&&&&&&%$          $%&&&&&&&@  #@@@*&&&;>@@+.      .+@@@@@@@#        @&&&&&&&&@                           @&&&&&&&&@           @&&&&&&&%$          $%&&&&&&&@  @&&&&&&&%$  .+@@>;&&&&&&&&&&&@  .$$$$$$$$           $%&&&&&&&@    ",
"           @&&&&&&&&@           @&&&&&&&%$      $%&&&&&&&&&&&@  +%%%%%%%'$          $%&&&&&&&@        @&&&&&&&&@                @&&&&&&&%$  $%&&&&&&&&&&&@      @&&&&&&&%$          $%&&&&&&&@      @&&&&&&&%$      $%&&&&&&&@        @&&&&&&&&@                           @&&&&&&&&@           @&&&&&&&%$          $%&&&&&&&@  @&&&&&&&%$      $%&&&&&&&&&&&@  +%%%%%%%'$          $%&&&&&&&@    ",
"           @&&&&&&&&@           @&&&&&&&%$      $%&&&&&&&&&&&@  @&&&&&&&%$          $%&&&&&&&@        @&&&&&&&&@                @&&&&&&&%$  $%&&&&&&&&&&&@      @&&&&&&&%$          $%&&&&&&&@      @&&&&&&&%$      $%&&&&&&&@        @&&&&&&&&@                           @&&&&&&&&@           @&&&&&&&%$          $%&&&&&&&@  @&&&&&&&%$      $%&&&&&&&&&&&@  @&&&&&&&%$          $%&&&&&&&@    ",
"           @&&&&&&&&@           @&&&&&&&%$      $%&&&&&&&&&&&@  @&&&&&&&%$          $%&&&&&&&@        @&&&&&&&&@                @&&&&&&&%$  $%&&&&&&&&&&&@      @&&&&&&&%$          $%&&&&&&&@      @&&&&&&&%$      $%&&&&&&&@        @&&&&&&&&@                           @&&&&&&&&@           @&&&&&&&%$          $%&&&&&&&@  @&&&&&&&%$      $%&&&&&&&&&&&@  @&&&&&&&%$          $%&&&&&&&@    ",
"  .+@@@@@@@*&&&&&&&&*@@@@@@@#   @&&&&&&&%$      $'%%=,&&&&&&&@  +%%%;&&&;>@@@@@@@@@@>;&&&*@@@#        @&&&&&&&&@                @&&&&&&&%$  .+@@>;&&&&&&&*@@@#  +%%%;&&&;>@@@@@@@@@@>;&&&*@@@#      +%%%;&&&;>@@@@@@>;&&&*@@@#        @&&&&&&&&@                  .+@@@@@@@*&&&&&&&&*@@@@@@@#   +%%%;&&&;>@@@@@@@@@@>;&&&*@@@#  @&&&&&&&%$      $'%%=,&&&&&&&@  +%%%;&&&;>@@@@@@@@@@>;&&&*@@@#    ",
"  $%&&&&&&&&&&&&&&&&&&&&&&&&@   @&&&&&&&%$       $$$-=&&&&&&&@  .$$$>&&&&&&&&&&&&&&&&&&&&@            @&&&&&&&&@                @&&&&&&&%$      $%&&&&&&&&&&&@  .$$$>&&&&&&&&&&&&&&&&&&&&@          .$$$>&&&&&&&&&&&&&&&&@            @&&&&&&&&@                  $%&&&&&&&&&&&&&&&&&&&&&&&&@   .$$$>&&&&&&&&&&&&&&&&&&&&@      @&&&&&&&%$       $$$-=&&&&&&&@  .$$$>&&&&&&&&&&&&&&&&&&&&@        ",
"  $%&&&&&&&&&&&&&&&&&&&&&&&&@   @&&&&&&&%$          $%&&&&&&&@      @&&&&&&&&&&&&&&&&&&&&@            @&&&&&&&&@                @&&&&&&&%$      $%&&&&&&&&&&&@      @&&&&&&&&&&&&&&&&&&&&@              @&&&&&&&&&&&&&&&&@            @&&&&&&&&@                  $%&&&&&&&&&&&&&&&&&&&&&&&&@       @&&&&&&&&&&&&&&&&&&&&@      @&&&&&&&%$          $%&&&&&&&@      @&&&&&&&&&&&&&&&&&&&&@        ",
"  $%&&&&&&&&&&&&&&&&&&&&&&&&@   @&&&&&&&%$          $%&&&&&&&@      @&&&&&&&&&&&&&&&&&&&&@            @&&&&&&&&@                @&&&&&&&%$      $%&&&&&&&&&&&@      @&&&&&&&&&&&&&&&&&&&&@              @&&&&&&&&&&&&&&&&@            @&&&&&&&&@                  $%&&&&&&&&&&&&&&&&&&&&&&&&@       @&&&&&&&&&&&&&&&&&&&&@      @&&&&&&&%$          $%&&&&&&&@      @&&&&&&&&&&&&&&&&&&&&@        ",
"  .+@@@@@@@@@@@@@@@@@@@@@@@@#   #@@@@@@@+.          .+@@@@@@@#      #@@@@@@@@@@@@@@@@@@@@#            #@@@@@@@@#                #@@@@@@@+.      .+@@@@@@@@@@@#      #@@@@@@@@@@@@@@@@@@@@#              #@@@@@@@@@@@@@@@@#            #@@@@@@@@#                  .+@@@@@@@@@@@@@@@@@@@@@@@@#       #@@@@@@@@@@@@@@@@@@@@#      #@@@@@@@+.          .+@@@@@@@#      #@@@@@@@@@@@@@@@@@@@@#        ",
"                                                                                                                                                                                                                                                                                                                                                                                                  ",
"                                                                                                                                                                                                                                                                                                                                                                                                  "};
