/* XPM */
static char * play1_xpm[] = {
"130 34 67 1",
" 	c None",
".	c #CBCBCB",
"+	c #CCCCCC",
"@	c #F3F3F3",
"#	c #D8D8D8",
"$	c #D3D3D3",
"%	c #F6F6F6",
"&	c #DCDCDC",
"*	c #E9E9E9",
"=	c #000000",
"-	c #DEDEDE",
";	c #7E7E7E",
">	c #636363",
",	c #E8E8E8",
"'	c #909090",
")	c #C1C1C1",
"!	c #616161",
"~	c #929292",
"{	c #797979",
"]	c #E0E0E0",
"^	c #545454",
"/	c #1B1B1B",
"(	c #C7C7C7",
"_	c #F8F8F8",
":	c #ADADAD",
"<	c #D6D6D6",
"[	c #DFDFDF",
"}	c #5C5C5C",
"|	c #383838",
"1	c #FCFCFC",
"2	c #E4E4E4",
"3	c #EBEBEB",
"4	c #535353",
"5	c #191919",
"6	c #787878",
"7	c #818181",
"8	c #777777",
"9	c #D0D0D0",
"0	c #FAFAFA",
"a	c #404040",
"b	c #FDFDFD",
"c	c #E1E1E1",
"d	c #F9F9F9",
"e	c #4F4F4F",
"f	c #4E4E4E",
"g	c #BFBFBF",
"h	c #FBFBFB",
"i	c #979797",
"j	c #C6C6C6",
"k	c #AAAAAA",
"l	c #D2D2D2",
"m	c #2F2F2F",
"n	c #3E3E3E",
"o	c #EEEEEE",
"p	c #BDBDBD",
"q	c #9D9D9D",
"r	c #080808",
"s	c #121212",
"t	c #010101",
"u	c #AEAEAE",
"v	c #FEFEFE",
"w	c #7F7F7F",
"x	c #ABABAB",
"y	c #4B4B4B",
"z	c #323232",
"A	c #9A9A9A",
"B	c #CACACA",
"                                                                                                                                  ",
"                                                                                                                                  ",
"                                                                                                                                  ",
"  .+++++++++++++++++++++++.    @++++++++#                                 $++++++++++++%            &+++++++.        .+++++++*    ",
"  =========================    -========;                                 >============,            '========        ========)    ",
"  =========================    -========;                                 >============,            '========        ========)    ",
"  =========================    -========;                                 >============,            '========        ========)    ",
"  ========!~~~~~~~~~~~{====    -========;                             ]&&&^===/~~~'====(&&&_        '========        ========)    ",
"  ========:           <========[========;                             }=======|   1========2        '========        ========)    ",
"  ========:           <========[========;                             }=======|   1========2        '========        ========)    ",
"  ========:           <========[========;                             }=======|   1========2        '========        ========)    ",
"  ========:           <========[========;                         3***4===56667   18668====9***0    '========        ========)    ",
"  ========:           <========[========;                         ^=======a           b========c    '========        ========)    ",
"  ========:           <========[========;                         ^=======a           b========c    '========        ========)    ",
"  ========:           <========[========;                         ^=======a           b========c    '========        ========)    ",
"  ========:           <========[========;                         ^=======a           b========c    '========        ========)    ",
"  ========:           <========[========;                         ^=======a           b========c    d%%%~====effffffe====g%%%h    ",
"  ========:           <========[========;                         ^=======a           b========c        i================j        ",
"  ========:           <========[========;                         ^=======a           b========c        i================j        ",
"  ========:           <========[========;                         ^=======a           b========c        i================j        ",
"  ========khhhhhhhhhhhl====|||m[========;                         ^=======nhhhhhhhhhhh_========c        @ooo~========pooo_        ",
"  =========================    -========;                         ^============================c            q========.            ",
"  =========================    -========;                         ^============================c            q========.            ",
"  =========================    -========;                         ^============================c            q========.            ",
"  ========rsssssssssssssss=    -========;                         ^=======tssssssssssss========c            q========.            ",
"  ========u                    -========;                         ^=======a           v========c            q========.            ",
"  ========:                    -========;                         ^=======a           b========c            q========.            ",
"  ========:                    -========;                         ^=======a           b========c            q========.            ",
"  ========:                    -========w                         ^=======a           b========c            q========.            ",
"  ========:                    -=========================_        ^=======a           b========c            q========.            ",
"  ========:                    -=========================d        ^=======a           b========c            q========.            ",
"  ========:                    -=========================d        ^=======a           b========c            q========.            ",
"  ========x                    -=========================_        y=======z           b========]            A========B            ",
"                                                                                                                                  "};
