/* XPM */
static char * play2_xpm[] = {
"130 34 71 1",
" 	c None",
".	c #FFF5CB",
"+	c #FFF5CC",
"@	c #FFFCF3",
"#	c #FFF7D8",
"$	c #FFF6D3",
"%	c #FFFDF6",
"&	c #FFF8DC",
"*	c #FFFAE9",
"=	c #FFE300",
"-	c #FFE400",
";	c #FFF8DE",
">	c #FFEA7E",
",	c #FFE863",
"'	c #FFFAE8",
")	c #FFEC90",
"!	c #FFF3C1",
"~	c #FFE761",
"{	c #FFEC92",
"]	c #FFEA79",
"^	c #FFF8E0",
"/	c #FFE754",
"(	c #FFE41B",
"_	c #FFF4C7",
":	c #FFFDF8",
"<	c #FFF0AD",
"[	c #FFF7D6",
"}	c #FFF8DF",
"|	c #FFE75C",
"1	c #FFE538",
"2	c #FFFEFC",
"3	c #FFF9E4",
"4	c #FFFBEB",
"5	c #FFE653",
"6	c #FFE419",
"7	c #FFE978",
"8	c #FFEA81",
"9	c #FFE977",
"0	c #FFF6D0",
"a	c #FFFEFA",
"b	c #FFE540",
"c	c #FFFFFD",
"d	c #FFF9E1",
"e	c #FFFEF9",
"f	c #FFE64F",
"g	c #FFE64E",
"h	c #FFF3BF",
"i	c #FFFEFB",
"j	c #FFED97",
"k	c #FFF4C6",
"l	c #FFEFAA",
"m	c #FFF6D2",
"n	c #FFE52F",
"o	c #FFE53E",
"p	c #FFFEF8",
"q	c #FFFBEE",
"r	c #FFF2BD",
"s	c #FFEE9D",
"t	c #FFE408",
"u	c #FFE412",
"v	c #FFE401",
"w	c #FFF0AE",
"x	c #FFFFFE",
"y	c #FFEA7F",
"z	c #FFEFAB",
"A	c #FFE64B",
"B	c #FFE532",
"C	c #FFFEFD",
"D	c #FFF9E0",
"E	c #FFED9A",
"F	c #FFF4CA",
"                                                                                                                                  ",
"                                                                                                                                  ",
"                                                                                                                                  ",
"  .+++++++++++++++++++++++.    @++++++++#                                 $++++++++++++%            &+++++++.        .+++++++*    ",
"  =------------------------    ;-------->                                 ,------------'            )--------        =-------!    ",
"  =------------------------    ;-------->                                 ,------------'            )--------        =-------!    ",
"  =------------------------    ;-------->                                 ,------------'            )--------        =-------!    ",
"  =-------~{{{{{{{{{{{]----    ;-------->                             ^&&&/---({{{)----_&&&:        )--------        =-------!    ",
"  =-------<           [--------}-------->                             |-------1   2--------3        )--------        =-------!    ",
"  =-------<           [--------}-------->                             |-------1   2--------3        )--------        =-------!    ",
"  =-------<           [--------}-------->                             |-------1   2--------3        )--------        =-------!    ",
"  =-------<           [--------}-------->                         4***5---67778   29779----0***a    )--------        =-------!    ",
"  =-------<           [--------}-------->                         /-------b           c--------d    )--------        =-------!    ",
"  =-------<           [--------}-------->                         /-------b           c--------d    )--------        =-------!    ",
"  =-------<           [--------}-------->                         /-------b           c--------d    )--------        =-------!    ",
"  =-------<           [--------}-------->                         /-------b           c--------d    )--------        =-------!    ",
"  =-------<           [--------}-------->                         /-------b           c--------d    e%%%{----fggggggf----h%%%i    ",
"  =-------<           [--------}-------->                         /-------b           c--------d        j----------------k        ",
"  =-------<           [--------}-------->                         /-------b           c--------d        j----------------k        ",
"  =-------<           [--------}-------->                         /-------b           c--------d        j----------------k        ",
"  =-------liiiiiiiiiiim----111n}-------->                         /-------oiiiiiiiiiiip--------d        @qqq{--------rqqq:        ",
"  =------------------------    ;-------->                         /----------------------------d            s--------.            ",
"  =------------------------    ;-------->                         /----------------------------d            s--------.            ",
"  =------------------------    ;-------->                         /----------------------------d            s--------.            ",
"  =-------tuuuuuuuuuuuuuuu-    ;-------->                         /-------vuuuuuuuuuuuu--------d            s--------.            ",
"  =-------w                    ;-------->                         /-------b           x--------d            s--------.            ",
"  =-------<                    ;-------->                         /-------b           c--------d            s--------.            ",
"  =-------<                    ;-------->                         /-------b           c--------d            s--------.            ",
"  =-------<                    ;--------y                         /-------b           c--------d            s--------.            ",
"  =-------<                    ;---------================p        /-------b           c--------d            s--------.            ",
"  =-------<                    ;-------------------------e        /-------b           c--------d            s--------.            ",
"  =-------<                    ;-------------------------e        /-------b           c--------d            s--------.            ",
"  ========z                    ;=========================p        A=======B           C========D            E========F            ",
"                                                                                                                                  "};
