/* XPM */
static char * bullet_2_xpm[] = {
"14 5 7 1",
" 	c #FF8D42",
".	c None",
"+	c #F46200",
"@	c #FFF200",
"#	c #B34700",
"$	c #B7AD00",
"%	c #FFBD91",
"           ...",
"++++++++++@++.",
"#########@$$##",
"++++++++++@++.",
"%%%%%%%%%%%..."};
