/* XPM */
static char * bullet_0_xpm[] = {
"14 5 7 1",
" 	c #B34700",
".	c None",
"+	c #F46200",
"@	c #FFF200",
"#	c #FF8D42",
"$	c #FFBD91",
"%	c #FFE6D5",
"           ...",
"++++++++++@++.",
"########@@@@##",
"$$$$$$$$$$@$$.",
"%%%%%%%%%%%..."};
