/* XPM */
static char * bullet_1_xpm[] = {
"14 5 6 1",
" 	c #F46200",
".	c None",
"+	c #B34700",
"@	c #FFF200",
"#	c #FF8D42",
"$	c #FFBD91",
"           ...",
"++++++++++@++.",
"        @@@@  ",
"##########@##.",
"$$$$$$$$$$$..."};
