/* XPM */
static char * crosshair[] = {
"33 33 3 1",
" 	c None",
".	c #000000",
"+	c #22B14C",
"               .+.               ",
"               .+.               ",
"               .+.               ",
"               .+.               ",
"               .+.               ",
"               .+.               ",
"               .+.               ",
"               .+.               ",
"               .+.               ",
"               .+.               ",
"               .+.               ",
"               .+.               ",
"               .+.               ",
"              .+++.              ",
"             .+. .+.             ",
".............+.   .+.............",
"++++++++++++++     ++++++++++++++",
".............+.   .+.............",
"             .+. .+.             ",
"              .+++.              ",
"               .+.               ",
"               .+.               ",
"               .+.               ",
"               .+.               ",
"               .+.               ",
"               .+.               ",
"               .+.               ",
"               .+.               ",
"               .+.               ",
"               .+.               ",
"               .+.               ",
"               .+.               ",
"               .+.               "};
