/* XPM */
static char * player_xpm[] = {
"100 84 4 1",
" 	c None",
".	c #FFFFFF",
"+	c #FE0000",
"@	c #00FF00",
"                                                                                                    ",
"                                                                                                    ",
"                                                                                                    ",
"                                                                                 .........          ",
"                                                                              ....+++++++...        ",
"                                             ........        ...         ......++++++++++++....     ",
"                                          ...++++++++........++...........+++++++++++++++++++++..   ",
"                                         ..++++++++++++++++++++++++++++++++++++++++++++++++++++..   ",
"                                        .++++++++++++++++++++++++++++++++++++++++++++++++++++++.    ",
"                                       ...................+++++++++++++++++++++++++++++++++++++.    ",
"                                       ...................+++++++++++++++++++++++++++++++++++++.    ",
"                                       ...................++++++++++++++++++++++++++++++++++++..    ",
"                                       ...................++++++++++++++++++++++++++++++++++++.     ",
"                                       ...................+++++++++..............++++++++++++..     ",
"                                       .....+++++++++.....++++++....            ....++++++++..      ",
"                                       .....+++++++++............                   ..+++++..       ",
"                                       .....+++++++++.....                            ..++..        ",
"                                       .....+++++++++.....                             ....         ",
"                                       .....+++++++++.....                                          ",
"                                       .....+++++++++.....                                          ",
"                                       .....+++++++++.....                                          ",
"                                       .....+++++++++.....                                          ",
"                                       .....+++++++++.....                                          ",
"                                       ...................                                          ",
"               ...................................................................                  ",
"               ...................................................................                  ",
"               ...................................................................                  ",
"               ...................................................................                  ",
"               ...................................................................                  ",
"               .....@@@@@@@@@@@@@@@@@@@@@++++++++++++++++@@@@@@@@@@@@@@@@@@@@.....                  ",
"               .....@@@@@@@@@@@@@@@@@@@@@++++++++++++++++@@@@@@@@@@@@@@@@@@@@.....                  ",
"               .....@@@@@@@@@@@@@@@@@@@@@++++++++++++++++@@@@@@@@@@@@@@@@@@@@.....                  ",
"               .....@@@@@@@@@@@@@@@@@@@@@++++++++++++++++@@@@@@@@@@@@@@@@@@@@.....                  ",
"               .....@@@@@@@@@@@@@@@@@@@@@++++++++++++++++@@@@@@@@@@@@@@@@@@@@.....                  ",
"               .....@@@@@@@@@@@@@@@@@@@@@+++++@@@@@@+++++@@@@@@@@@@@@@@@@@@@@.....                  ",
"               .....@@@@@@@@@@@@@@@@@@@@@+++++@@@@@@+++++@@@@@@@@@@@@@@@@@@@@.....                  ",
"               .....@@@@@@@@@@@@@@@@@@@@@+++++@@@@@@+++++@@@@@@@@@@@@@@@@@@@@.....                  ",
"               .....@@@@@@@@@@@@@@@@@@@@@+++++@@@@@@+++++@@@@@@@@@@@@@@@@@@@@.....                  ",
"               .....@@@@@@@@@@@@@@@@@@@@@+++++@@@@@@+++++@@@@@@@@@@@@@@@@@@@@.....                  ",
"               .....@@@@@@@@@@@@@@@@@@@@@+++++@@@@@@+++++@@@@@@@@@@@@@@@@@@@@.....                  ",
"               .....@@@@@@@@@@@@@@@@@@@@@+++++@@@@@@+++++@@@@@@@@@@@@@@@@@@@@.....                  ",
"               .....@@@@@@@@@@@@@@@@@@@@@+++++@@@@@@+++++@@@@@@@@@@@@@@@@@@@@.....                  ",
"               .....@@@@@@@@@@@@@@@@@@@@@+++++@@@@@@+++++@@@@@@@@@@@@@@@@@@@@.....                  ",
"               .....@@@@@@@@@@@@@@@@@@@@@+++++@@@@@@+++++@@@@@@@@@@@@@@@@@@@@.....                  ",
"               .....@@@@@@@@@@@@@@@@@@@@@+++++@@@@@@+++++@@@@@@@@@@@@@@@@@@@@.....                  ",
"               .....@@@@@@@@@@@@@@@@@@@@@+++++@@@@@@+++++@@@@@@@@@@@@@@@@@@@@.....                  ",
"               .....@@@@@@@@@@@@@@@@@@@@@+++++@@@@@@+++++@@@@@@@@@@@@@@@@@@@@.....                  ",
"               .....@@@@@@@@@@@@@@@@@@@@@+++++@@@@@@+++++@@@@@@@@@@@@@@@@@@@@.....                  ",
"               .....@@@@@@@@@@@@@@@@@@@@@+++++@@@@@@+++++@@@@@@@@@@@@@@@@@@@@.....                  ",
"               .....@@@@@@@@@@@@@@@@@@@@@+++++@@@@@@+++++@@@@@@@@@@@@@@@@@@@@.....                  ",
"               .....@@@@@@@@@@@@@@@@@@@@@+++++@@@@@@+++++@@@@@@@@@@@@@@@@@@@@.....                  ",
"               .....@@@@@@@@@@@@@@@@@@@@@++++++++++++++++@@@@@@@@@@@@@@@@@@@@.....                  ",
"               .....@@@@@@@@@@@@@@@@@@@@@++++++++++++++++@@@@@@@@@@@@@@@@@@@@.....                  ",
"               .....@@@@@@@@@@@@@@@@@@@@@++++++++++++++++@@@@@@@@@@@@@@@@@@@@.....                  ",
"               .....@@@@@@@@@@@@@@@@@@@@@++++++++++++++++@@@@@@@@@@@@@@@@@@@@.....                  ",
"               .....@@@@@@@@@@@@@@@@@@@@@++++++++++++++++@@@@@@@@@@@@@@@@@@@@.....                  ",
"               ...................................................................                  ",
"               ...................................................................                  ",
"               ...................................................................                  ",
"               ...................................................................                  ",
"               ...................................................................                  ",
"                                       ...................                                          ",
"                                       .....+++++++++.....                                          ",
"                                       .....+++++++++.....                                          ",
"                                       .....+++++++++.....                                          ",
"                                       .....+++++++++.....                                          ",
"                                       .....+++++++++.....                                          ",
"                                       .....+++++++++.....                             ....         ",
"                                       .....+++++++++.....                            ..++..        ",
"                                       .....+++++++++............                   ..+++++..       ",
"                                       .....+++++++++.....++++++....            ....++++++++..      ",
"                                       ...................+++++++++..............++++++++++++..     ",
"                                       ...................++++++++++++++++++++++++++++++++++++.     ",
"                                       ...................++++++++++++++++++++++++++++++++++++..    ",
"                                       ...................+++++++++++++++++++++++++++++++++++++.    ",
"                                       ...................+++++++++++++++++++++++++++++++++++++.    ",
"                                        .++++++++++++++++++++++++++++++++++++++++++++++++++++++.    ",
"                                         ..++++++++++++++++++++++++++++++++++++++++++++++++++++..   ",
"                                          ...++++++++........++...........+++++++++++++++++++++..   ",
"                                             ........        ...         ......++++++++++++....     ",
"                                                                              ....+++++++...        ",
"                                                                                 .........          ",
"                                                                                                    ",
"                                                                                                    "};
