/* XPM */
static char * shooter_xpm[] = {
"70 70 24 1",
" 	c None",
".	c #FFE97F",
"+	c #267F00",
"@	c #277F00",
"#	c #FFEB81",
"$	c #FFEF83",
"%	c #FDE97E",
"&	c #000000",
"*	c #268000",
"=	c #287F00",
"-	c #267F06",
";	c #227F00",
">	c #278200",
",	c #FF0000",
"'	c #008100",
")	c #277E00",
"!	c #0094FF",
"~	c #0095FF",
"{	c #278100",
"]	c #028000",
"^	c #267F07",
"/	c #267F01",
"(	c #278300",
"_	c #267E00",
"                                                                      ",
"                                                                      ",
"                                                                      ",
"                                                                      ",
"                                                                      ",
"                                                                      ",
"                                                                      ",
"                                                                      ",
"                                                                      ",
"                                                                      ",
"                                                                      ",
"                                                                      ",
"                                                                      ",
"                                                                      ",
"                                                                      ",
"                                                                      ",
"                                                                      ",
"                                                                      ",
"                              .........                               ",
"                             ...........                              ",
"                           ...............                            ",
"                 +++@++..#.................$.++++++++                 ",
"              ++++++++......................%..+++++++++              ",
"              +++++++...........................++++++++              ",
"             ++++++++&&&&&&&&&&&&&&&&&&&&&&&&&&&+*+++++++             ",
"           ++++++++++&&&&&&&&&&&&&&&&&&&&&&&&&&&+++++++++++           ",
"           =++++++++&&&&&&&&&&&&&&&&&&&&&&&&&&&&&+*+++++++-           ",
"           ;+++++++&&&&&&&&&&&&&&&&&&&&&&&&&&&&&&+>++++++++           ",
",,,,,,,,,,+'+++++++&&&&&&&&&&&&&&&&&&&&&&&&&&&&&&+++++++++)+!~!!!!!!!!",
",,,,,,,,,,+'++++*+&&&&&&&&&&&&&&&&&&&&&&&&&&&&&&&&++++++++)+!~!!!!!!!!",
",,,,,,,,,,+'++++{+&&&&&&&&&&&&&&&&&&&&&&&&&&&&&&&&&+++++++)+!~!!!!!!!!",
",,,,,,,,,,+'++++{+&&&&&&&&&&&&&&&&&&&&&&&&&&&&&&&&&+++++++)+!~!!!!!!!!",
",,,,,,,,,,+'++++{+&&&&&&&&&&&&&&&&&&&&&&&&&&&&&&&&&+++++++)+!~!!!!!!!!",
",,,,,,,,,,+'++++{+&&&&&&&&&&&&&&&&&&&&&&&&&&&&&&&&&+++++++)+!~!!!!!!!!",
",,,,,,,,,,+'++++{+&&&&&&&&&&&&&&&&&&&&&&&&&&&&&&&&&+++++++)+!~!!!!!!!!",
",,,,,,,,,,+'++++{+&&&&&&&&&&&&&&&&&&&&&&&&&&&&&&&&&+++++++)+!~!!!!!!!!",
",,,,,,,,,,+'++++{+&&&&&&&&&&&&&&&&&&&&&&&&&&&&&&&&&+++++++)+!~!!!!!!!!",
",,,,,,,,,,+'++++{+&&&&&&&&&&&&&&&&&&&&&&&&&&&&&&&&&+++++++)+!~!!!!!!!!",
",,,,,,,,,,+'++++{+&&&&&&&&&&&&&&&&&&&&&&&&&&&&&&&&&+++++++)+!~!!!!!!!!",
",,,,,,,,,,+'+++++++&&&&&&&&&&&&&&&&&&&&&&&&&&&&&&&++++++++)+!~!!!!!!!!",
",,,,,,,,,,+]+++++++&&&&&&&&&&&&&&&&&&&&&&&&&&&&&&+++++++++++!~!!!!!!!!",
"           =+++++++&&&&&&&&&&&&&&&&&&&&&&&&&&&&&&+++++++++^           ",
"           +++++++++&&&&&&&&&&&&&&&&&&&&&&&&&&&&++++++++++/           ",
"            +++++++++&&&&&&&&&&&&&&&&&&&&&&&&&&&++++++++++            ",
"             ++++++++&&&&&&&&&&&&&&&&&&&&&&&&&&&+++++++++             ",
"              ++++++*+&&&&&&&&&&&&&&&&&&&&&&&&+(++++++++              ",
"                 ++++++&&&&&&&&&&&&&&&&&&&&&&+_{+++++                 ",
"                 +++++++&&&&&&&&&&&&&&&&&&&&&+(++++++                 ",
"                        &&&&&&&&&&&&&&&&&&&&&                         ",
"                         &&&&&&&&&&&&&&&&&&&&                         ",
"                             &&&&&&&&&&&&                             ",
"                                                                      ",
"                                                                      ",
"                                                                      ",
"                                                                      ",
"                                                                      ",
"                                                                      ",
"                                                                      ",
"                                                                      ",
"                                                                      ",
"                                                                      ",
"                                                                      ",
"                                                                      ",
"                                                                      ",
"                                                                      ",
"                                                                      ",
"                                                                      ",
"                                                                      ",
"                                                                      ",
"                                                                      "};
